<COLLADA xmlns="http://www.collada.org/2005/11/COLLADASchema" version="1.4.1">
  <asset>
    <contributor/>
    <created>2025-09-18T17:45:19.125308</created>
    <modified>2025-09-18T17:45:19.125317</modified>
    <unit name="meter" meter="1.0"/>
    <up_axis>Z_UP</up_axis>
  </asset>
  <library_effects>
    <effect id="effect_Body" name="effect_Body">
      <profile_COMMON>
        <technique sid="common">
          <phong>
            <emission>
              <color>0.0 0.0 0.0 1.0</color>
            </emission>
            <ambient>
              <color>0.0 0.0 0.0 1.0</color>
            </ambient>
            <diffuse>
              <color>0.4470588266849518 0.4745098054409027 0.501960813999176 1.0</color>
            </diffuse>
            <specular>
              <color>1 1 1 1.0</color>
            </specular>
            <shininess>
              <float>0.0</float>
            </shininess>
            <reflective>
              <color>0.0 0.0 0.0 1.0</color>
            </reflective>
            <reflectivity>
              <float>0.0</float>
            </reflectivity>
            <transparent>
              <color>0.0 0.0 0.0 1.0</color>
            </transparent>
            <transparency>
              <float>1.0</float>
            </transparency>
          </phong>
        </technique>
        <extra>
          <technique profile="GOOGLEEARTH">
            <double_sided>0</double_sided>
          </technique>
        </extra>
      </profile_COMMON>
    </effect>
  </library_effects>
  <library_geometries>
    <geometry id="geometry0" name="Body">
      <mesh>
        <source id="cubeverts-array0">
          <float_array count="2592" id="cubeverts-array0-array">-0.03 -0.0075 0.02 -0.03 -0.0075 -0.002039789 -0.03 -0.0175 0.02 -0.03 -0.007496789 -0.002137894 -0.03 -0.0175 -0.02 -0.03 -0.007487167 -0.002235578 -0.03 -0.007471178 -0.002332425 -0.03 -0.007448889 -0.002428018 -0.03 -0.007420395 -0.002521948 -0.03 -0.007385819 -0.002613814 -0.03 -0.007345309 -0.002703222 -0.03 -0.007299038 -0.002789789 -0.03 -0.007247204 -0.002873144 -0.03 -0.00719003 -0.002952931 -0.03 -0.00712776 -0.003028808 -0.03 -0.00706066 -0.003100449 -0.03 -0.006989019 -0.003167549 -0.03 -0.006913142 -0.003229819 -0.03 -0.006833355 -0.003286994 -0.03 -0.00675 -0.003338827 -0.03 -0.006663433 -0.003385098 -0.03 -0.006574025 -0.003425608 -0.03 -0.006482159 -0.003460184 -0.03 -0.006388228 -0.003488678 -0.03 -0.006292635 -0.003510967 -0.03 -0.006195789 -0.003526956 -0.03 -0.006098104 -0.003536577 -0.03 -0.006 -0.003539789 -0.03 0.0175 0.02 -0.03 0.0075 -0.002039789 -0.03 0.0075 0.02 -0.03 0.006098104 -0.003536577 -0.03 0.0175 -0.02 -0.03 0.006 -0.003539789 -0.03 0.006195789 -0.003526956 -0.03 0.006292635 -0.003510967 -0.03 0.006388228 -0.003488678 -0.03 0.006482159 -0.003460184 -0.03 0.006574025 -0.003425608 -0.03 0.006663433 -0.003385098 -0.03 0.00675 -0.003338827 -0.03 0.006833355 -0.003286994 -0.03 0.006913142 -0.003229819 -0.03 0.006989019 -0.003167549 -0.03 0.00706066 -0.003100449 -0.03 0.00712776 -0.003028808 -0.03 0.00719003 -0.002952931 -0.03 0.007247204 -0.002873144 -0.03 0.007299038 -0.002789789 -0.03 0.007345309 -0.002703222 -0.03 0.007385819 -0.002613814 -0.03 0.007420395 -0.002521948 -0.03 0.007448889 -0.002428018 -0.03 0.007471178 -0.002332425 -0.03 0.007487167 -0.002235578 -0.03 0.007496789 -0.002137894 -0.02094711 -0.0075 0.04147601 -0.007330519 -0.0075 0.02680173 -0.02199156 -0.0075 0.04040518 -0.006982368 -0.0075 0.02715867 -0.01985057 -0.0075 0.04249343 -0.006616858 -0.0075 0.02749781 -0.01870469 -0.0075 0.04345494 -0.007660444 -0.0075 0.02642788 -0.02298133 -0.0075 0.03928363 -0.006234898 -0.0075 0.02781832 -0.007971325 -0.0075 0.02603804 -0.02391397 -0.0075 0.03811413 -0.01751231 -0.0075 0.04435814 -0.005837437 -0.0075 0.02811938 -0.01627639 -0.0075 0.04520078 -0.008262387 -0.0075 0.0256332 -0.02478716 -0.0075 0.0368996 -0.005425463 -0.0075 0.02840026 -0.015 -0.0075 0.04598076 -0.008532908 -0.0075 0.02521435 -0.02559873 -0.0075 0.03564305 -0.005 -0.0075 0.02866025 -0.02634665 -0.0075 0.03434762 -0.008782216 -0.0075 0.02478254 -0.02702907 -0.0075 0.03301651 -0.01368632 -0.0075 0.04669616 -0.004562107 -0.0075 0.02889872 -0.01233861 -0.0075 0.04734518 -0.009009688 -0.0075 0.02433884 -0.004112871 -0.0075 0.02911506 -0.009214762 -0.0075 0.02388435 -0.02764429 -0.0075 0.03165304 -0.01096023 -0.0075 0.04792621 -0.00365341 -0.0075 0.02930874 -0.0095546 -0.0075 0.04843782 -0.009396926 -0.0075 0.0234202 -0.02819078 -0.0075 0.0302606 -0.003184866 -0.0075 0.02947927 -0.009555728 -0.0075 0.02294755 -0.02866718 -0.0075 0.02884266 -0.002708405 -0.0075 0.02962624 -0.008125214 -0.0075 0.04887873 -0.006675628 -0.0075 0.04924784 -0.009690773 -0.0075 0.02246757 -0.02907232 -0.0075 0.02740272 -0.002225209 -0.0075 0.02974928 -0.005209445 -0.0075 0.04954423 -0.009801724 -0.0075 0.02198146 -0.02940517 -0.0075 0.02594438 -0.001736482 -0.0075 0.02984808 -0.009888309 -0.0075 0.02149042 -0.02966492 -0.0075 0.02447127 -0.001243437 -0.0075 0.02992239 -0.003730311 -0.0075 0.04976718 -0.002241903 -0.0075 0.04991611 -0.009950308 -0.0075 0.02099568 -0.02985092 -0.0075 0.02298704 -0.0007473009 -0.0075 0.02997204 -0.02996271 -0.0075 0.02149538 -0.009987569 -0.0075 0.02049846 -0.0002493069 -0.0075 0.02999689 -0.0007479208 -0.0075 0.04999068 0.0007479208 -0.0075 0.04999068 -0.01 -0.0075 0.02 0.0002493069 -0.0075 0.02999689 0.002241903 -0.0075 0.04991611 -0.009987569 -0.0075 0.01950154 0.0007473009 -0.0075 0.02997204 -0.009950308 -0.0075 0.01900432 0.003730311 -0.0075 0.04976718 0.001243437 -0.0075 0.02992239 0.005209445 -0.0075 0.04954423 -0.009888309 -0.0075 0.01850958 0.001736482 -0.0075 0.02984808 -0.009801724 -0.0075 0.01801854 0.006675628 -0.0075 0.04924784 0.002225209 -0.0075 0.02974928 -0.009690773 -0.0075 0.01753243 0.008125214 -0.0075 0.04887873 0.002708405 -0.0075 0.02962624 -0.009555728 -0.0075 0.01705245 0.0095546 -0.0075 0.04843782 0.003184866 -0.0075 0.02947927 -0.009396926 -0.0075 0.0165798 0.00365341 -0.0075 0.02930874 0.01096023 -0.0075 0.04792621 -0.009214762 -0.0075 0.01611565 0.01233861 -0.0075 0.04734518 0.004112871 -0.0075 0.02911506 -0.009009688 -0.0075 0.01566116 0.004562107 -0.0075 0.02889872 0.01368632 -0.0075 0.04669616 -0.008782216 -0.0075 0.01521746 0.015 -0.0075 0.04598076 0.005 -0.0075 0.02866025 -0.008532908 -0.0075 0.01478565 0.01627639 -0.0075 0.04520078 0.005425463 -0.0075 0.02840026 0.01751231 -0.0075 0.04435814 -0.008262387 -0.0075 0.0143668 0.01870469 -0.0075 0.04345494 0.005837437 -0.0075 0.02811938 -0.007971325 -0.0075 0.01396196 0.006234898 -0.0075 0.02781832 -0.007660444 -0.0075 0.01357212 0.006616858 -0.0075 0.02749781 0.01985057 -0.0075 0.04249343 0.02094711 -0.0075 0.04147601 -0.007330519 -0.0075 0.01319827 0.006982368 -0.0075 0.02715867 -0.006982368 -0.0075 0.01284133 -0.006616858 -0.0075 0.01250219 -0.006234898 -0.0075 0.01218169 0.02199156 -0.0075 0.04040518 0.007330519 -0.0075 0.02680173 -0.005837437 -0.0075 0.01188062 -0.005425463 -0.0075 0.01159974 -0.005 -0.0075 0.01133975 0.02298133 -0.0075 0.03928363 0.007660444 -0.0075 0.02642788 -0.004562107 -0.0075 0.01110128 -0.004112871 -0.0075 0.01088494 -0.00365341 -0.0075 0.01069126 0.02391397 -0.0075 0.03811413 0.007971325 -0.0075 0.02603804 0.008262387 -0.0075 0.0256332 -0.003184866 -0.0075 0.01052073 -0.002708405 -0.0075 0.01037376 -0.002225209 -0.0075 0.01025072 0.02478716 -0.0075 0.0368996 -0.001736482 -0.0075 0.01015192 -0.001243437 -0.0075 0.01007761 -0.0007473009 -0.0075 0.01002796 -0.0002493069 -0.0075 0.01000311 0.02559873 -0.0075 0.03564305 0.008532908 -0.0075 0.02521435 0.0002493069 -0.0075 0.01000311 0.02634665 -0.0075 0.03434762 0.008782216 -0.0075 0.02478254 0.02702907 -0.0075 0.03301651 0.009009688 -0.0075 0.02433884 0.02764429 -0.0075 0.03165304 0.009214762 -0.0075 0.02388435 0.02819078 -0.0075 0.0302606 0.009396926 -0.0075 0.0234202 0.02866718 -0.0075 0.02884266 0.009555728 -0.0075 0.02294755 0.02907232 -0.0075 0.02740272 0.009690773 -0.0075 0.02246757 0.009801724 -0.0075 0.02198146 0.02940517 -0.0075 0.02594438 0.02966492 -0.0075 0.02447127 0.009888309 -0.0075 0.02149042 0.02985092 -0.0075 0.02298704 0.009950308 -0.0075 0.02099568 0.02996271 -0.0075 0.02149538 0.009987569 -0.0075 0.02049846 0.01 -0.0075 0.02 0.03 -0.0075 0.02 0.009987569 -0.0075 0.01950154 0.009950308 -0.0075 0.01900432 0.009888309 -0.0075 0.01850958 0.009801724 -0.0075 0.01801854 0.009690773 -0.0075 0.01753243 0.009555728 -0.0075 0.01705245 0.009396926 -0.0075 0.0165798 0.009214762 -0.0075 0.01611565 0.009009688 -0.0075 0.01566116 0.008782216 -0.0075 0.01521746 0.03 -0.0075 -0.002039789 0.008532908 -0.0075 0.01478565 0.008262387 -0.0075 0.0143668 0.007971325 -0.0075 0.01396196 0.007660444 -0.0075 0.01357212 0.007330519 -0.0075 0.01319827 0.006982368 -0.0075 0.01284133 0.006616858 -0.0075 0.01250219 0.006234898 -0.0075 0.01218169 0.005837437 -0.0075 0.01188062 0.005425463 -0.0075 0.01159974 0.005 -0.0075 0.01133975 0.004562107 -0.0075 0.01110128 0.004112871 -0.0075 0.01088494 0.00365341 -0.0075 0.01069126 0.003184866 -0.0075 0.01052073 0.002708405 -0.0075 0.01037376 0.002225209 -0.0075 0.01025072 0.001736482 -0.0075 0.01015192 0.001243437 -0.0075 0.01007761 0.0007473009 -0.0075 0.01002796 0.03 -0.007496789 -0.002137894 0.03 -0.007487167 -0.002235578 0.03 -0.007471178 -0.002332425 0.03 -0.007448889 -0.002428018 0.03 -0.007420395 -0.002521948 0.03 -0.007385819 -0.002613814 0.03 -0.007345309 -0.002703222 0.03 -0.007299038 -0.002789789 0.03 -0.007247204 -0.002873144 0.03 -0.00719003 -0.002952931 0.03 -0.00712776 -0.003028808 0.03 -0.00706066 -0.003100449 0.03 -0.006989019 -0.003167549 0.03 -0.006913142 -0.003229819 0.03 -0.006833355 -0.003286994 0.03 -0.00675 -0.003338827 0.03 -0.006663433 -0.003385098 0.03 -0.006574025 -0.003425608 0.03 -0.006482159 -0.003460184 0.03 -0.006388228 -0.003488678 0.03 -0.006292635 -0.003510967 0.03 -0.006195789 -0.003526956 0.03 -0.006098104 -0.003536577 0.03 -0.006 -0.003539789 0.03 -0.0175 0.02 0.02996271 -0.0175 0.02149538 0.02985092 -0.0175 0.02298704 0.02966492 -0.0175 0.02447127 0.02940517 -0.0175 0.02594438 0.02907232 -0.0175 0.02740272 0.02866718 -0.0175 0.02884266 0.02819078 -0.0175 0.0302606 0.02764429 -0.0175 0.03165304 0.02702907 -0.0175 0.03301651 0.02634665 -0.0175 0.03434762 0.02559873 -0.0175 0.03564305 0.02478716 -0.0175 0.0368996 0.02391397 -0.0175 0.03811413 0.02298133 -0.0175 0.03928363 0.02199156 -0.0175 0.04040518 0.02094711 -0.0175 0.04147601 0.01985057 -0.0175 0.04249343 0.01870469 -0.0175 0.04345494 0.01751231 -0.0175 0.04435814 0.01627639 -0.0175 0.04520078 0.015 -0.0175 0.04598076 0.01368632 -0.0175 0.04669616 0.01233861 -0.0175 0.04734518 0.01096023 -0.0175 0.04792621 0.0095546 -0.0175 0.04843782 0.008125214 -0.0175 0.04887873 0.006675628 -0.0175 0.04924784 0.005209445 -0.0175 0.04954423 0.003730311 -0.0175 0.04976718 0.002241903 -0.0175 0.04991611 0.0007479208 -0.0175 0.04999068 -0.0007479208 -0.0175 0.04999068 -0.002241903 -0.0175 0.04991611 -0.003730311 -0.0175 0.04976718 -0.005209445 -0.0175 0.04954423 -0.006675628 -0.0175 0.04924784 -0.008125214 -0.0175 0.04887873 -0.0095546 -0.0175 0.04843782 -0.01096023 -0.0175 0.04792621 -0.01233861 -0.0175 0.04734518 -0.01368632 -0.0175 0.04669616 -0.015 -0.0175 0.04598076 -0.01627639 -0.0175 0.04520078 -0.01751231 -0.0175 0.04435814 -0.01870469 -0.0175 0.04345494 -0.01985057 -0.0175 0.04249343 -0.02094711 -0.0175 0.04147601 -0.02199156 -0.0175 0.04040518 -0.02298133 -0.0175 0.03928363 -0.02391397 -0.0175 0.03811413 -0.02478716 -0.0175 0.0368996 -0.02559873 -0.0175 0.03564305 -0.02634665 -0.0175 0.03434762 -0.02702907 -0.0175 0.03301651 -0.02764429 -0.0175 0.03165304 -0.02819078 -0.0175 0.0302606 -0.02866718 -0.0175 0.02884266 -0.02907232 -0.0175 0.02740272 -0.02940517 -0.0175 0.02594438 -0.02966492 -0.0175 0.02447127 -0.02985092 -0.0175 0.02298704 -0.02996271 -0.0175 0.02149538 0.03 0.006 -0.003539789 -0.006982368 -0.0175 0.01284133 -0.007330519 -0.0175 0.01319827 -0.006616858 -0.0175 0.01250219 -0.007660444 -0.0175 0.01357212 -0.006234898 -0.0175 0.01218169 -0.007971325 -0.0175 0.01396196 -0.005837437 -0.0175 0.01188062 -0.008262387 -0.0175 0.0143668 -0.005425463 -0.0175 0.01159974 -0.008532908 -0.0175 0.01478565 -0.005 -0.0175 0.01133975 -0.008782216 -0.0175 0.01521746 -0.004562107 -0.0175 0.01110128 -0.009009688 -0.0175 0.01566116 -0.004112871 -0.0175 0.01088494 -0.009214762 -0.0175 0.01611565 -0.00365341 -0.0175 0.01069126 -0.009396926 -0.0175 0.0165798 -0.003184866 -0.0175 0.01052073 -0.009555728 -0.0175 0.01705245 -0.002708405 -0.0175 0.01037376 -0.009690773 -0.0175 0.01753243 -0.002225209 -0.0175 0.01025072 -0.009801724 -0.0175 0.01801854 -0.001736482 -0.0175 0.01015192 -0.009888309 -0.0175 0.01850958 -0.001243437 -0.0175 0.01007761 -0.009950308 -0.0175 0.01900432 -0.0007473009 -0.0175 0.01002796 -0.009987569 -0.0175 0.01950154 -0.0002493069 -0.0175 0.01000311 -0.01 -0.0175 0.02 0.03 -0.0175 -0.02 0.0002493069 -0.0175 0.01000311 -0.009987569 -0.0175 0.02049846 0.0007473009 -0.0175 0.01002796 -0.009950308 -0.0175 0.02099568 0.001243437 -0.0175 0.01007761 -0.009888309 -0.0175 0.02149042 0.001736482 -0.0175 0.01015192 -0.009801724 -0.0175 0.02198146 0.002225209 -0.0175 0.01025072 -0.009690773 -0.0175 0.02246757 0.002708405 -0.0175 0.01037376 -0.009555728 -0.0175 0.02294755 0.003184866 -0.0175 0.01052073 -0.009396926 -0.0175 0.0234202 0.00365341 -0.0175 0.01069126 -0.009214762 -0.0175 0.02388435 0.004112871 -0.0175 0.01088494 -0.009009688 -0.0175 0.02433884 0.004562107 -0.0175 0.01110128 -0.008782216 -0.0175 0.02478254 0.005 -0.0175 0.01133975 -0.008532908 -0.0175 0.02521435 0.005425463 -0.0175 0.01159974 -0.008262387 -0.0175 0.0256332 0.005837437 -0.0175 0.01188062 -0.007971325 -0.0175 0.02603804 0.006234898 -0.0175 0.01218169 -0.007660444 -0.0175 0.02642788 0.006616858 -0.0175 0.01250219 -0.007330519 -0.0175 0.02680173 0.006982368 -0.0175 0.01284133 0.007330519 -0.0175 0.01319827 -0.006982368 -0.0175 0.02715867 -0.006616858 -0.0175 0.02749781 0.007660444 -0.0175 0.01357212 -0.006234898 -0.0175 0.02781832 -0.005837437 -0.0175 0.02811938 -0.005425463 -0.0175 0.02840026 -0.004562107 -0.0175 0.02889872 -0.005 -0.0175 0.02866025 -0.004112871 -0.0175 0.02911506 -0.00365341 -0.0175 0.02930874 -0.002708405 -0.0175 0.02962624 -0.003184866 -0.0175 0.02947927 -0.002225209 -0.0175 0.02974928 -0.001243437 -0.0175 0.02992239 -0.001736482 -0.0175 0.02984808 -0.0007473009 -0.0175 0.02997204 -0.0002493069 -0.0175 0.02999689 0.01 -0.0175 0.02 0.009987569 -0.0175 0.02049846 0.007971325 -0.0175 0.01396196 0.008262387 -0.0175 0.0143668 0.008532908 -0.0175 0.01478565 0.008782216 -0.0175 0.01521746 0.009009688 -0.0175 0.01566116 0.009214762 -0.0175 0.01611565 0.009396926 -0.0175 0.0165798 0.009555728 -0.0175 0.01705245 0.009690773 -0.0175 0.01753243 0.009801724 -0.0175 0.01801854 0.009888309 -0.0175 0.01850958 0.009950308 -0.0175 0.01900432 0.009987569 -0.0175 0.01950154 0.0002493069 -0.0175 0.02999689 0.009950308 -0.0175 0.02099568 0.0007473009 -0.0175 0.02997204 0.001243437 -0.0175 0.02992239 0.009888309 -0.0175 0.02149042 0.001736482 -0.0175 0.02984808 0.009801724 -0.0175 0.02198146 0.002225209 -0.0175 0.02974928 0.009690773 -0.0175 0.02246757 0.002708405 -0.0175 0.02962624 0.009555728 -0.0175 0.02294755 0.009396926 -0.0175 0.0234202 0.003184866 -0.0175 0.02947927 0.004112871 -0.0175 0.02911506 0.00365341 -0.0175 0.02930874 0.009214762 -0.0175 0.02388435 0.009009688 -0.0175 0.02433884 0.005 -0.0175 0.02866025 0.004562107 -0.0175 0.02889872 0.008782216 -0.0175 0.02478254 0.008532908 -0.0175 0.02521435 0.005425463 -0.0175 0.02840026 0.008262387 -0.0175 0.0256332 0.006234898 -0.0175 0.02781832 0.005837437 -0.0175 0.02811938 0.007971325 -0.0175 0.02603804 0.007660444 -0.0175 0.02642788 0.006616858 -0.0175 0.02749781 0.007330519 -0.0175 0.02680173 0.006982368 -0.0175 0.02715867 0.03 0.006098104 -0.003536577 0.03 0.006195789 -0.003526956 0.03 0.006292635 -0.003510967 0.03 0.006388228 -0.003488678 0.03 0.006482159 -0.003460184 0.03 0.006574025 -0.003425608 0.03 0.006663433 -0.003385098 0.03 0.00675 -0.003338827 0.03 0.006833355 -0.003286994 0.03 0.006913142 -0.003229819 0.03 0.006989019 -0.003167549 0.03 0.00706066 -0.003100449 0.03 0.00712776 -0.003028808 0.03 0.00719003 -0.002952931 0.03 0.007247204 -0.002873144 0.03 0.007299038 -0.002789789 0.03 0.007345309 -0.002703222 0.03 0.007385819 -0.002613814 0.03 0.007420395 -0.002521948 0.03 0.007448889 -0.002428018 0.03 0.007471178 -0.002332425 0.03 0.007487167 -0.002235578 0.03 0.007496789 -0.002137894 0.03 0.0075 -0.002039789 0.03 0.0175 -0.02 -0.006982368 0.0075 0.01284133 -0.007330519 0.0075 0.01319827 -0.006616858 0.0075 0.01250219 -0.007660444 0.0075 0.01357212 -0.006234898 0.0075 0.01218169 -0.007971325 0.0075 0.01396196 -0.005837437 0.0075 0.01188062 -0.008262387 0.0075 0.0143668 -0.005425463 0.0075 0.01159974 -0.008532908 0.0075 0.01478565 -0.005 0.0075 0.01133975 -0.008782216 0.0075 0.01521746 -0.004562107 0.0075 0.01110128 -0.009009688 0.0075 0.01566116 -0.004112871 0.0075 0.01088494 -0.009214762 0.0075 0.01611565 -0.00365341 0.0075 0.01069126 -0.009396926 0.0075 0.0165798 -0.003184866 0.0075 0.01052073 -0.009555728 0.0075 0.01705245 -0.002708405 0.0075 0.01037376 -0.009690773 0.0075 0.01753243 -0.002225209 0.0075 0.01025072 -0.009801724 0.0075 0.01801854 -0.001736482 0.0075 0.01015192 -0.009888309 0.0075 0.01850958 -0.001243437 0.0075 0.01007761 -0.009950308 0.0075 0.01900432 -0.0007473009 0.0075 0.01002796 -0.009987569 0.0075 0.01950154 -0.0002493069 0.0075 0.01000311 -0.01 0.0075 0.02 -0.02996271 0.0075 0.02149538 -0.009987569 0.0075 0.02049846 -0.02985092 0.0075 0.02298704 -0.009950308 0.0075 0.02099568 -0.02966492 0.0075 0.02447127 -0.009888309 0.0075 0.02149042 -0.009801724 0.0075 0.02198146 -0.02940517 0.0075 0.02594438 -0.02907232 0.0075 0.02740272 -0.009690773 0.0075 0.02246757 -0.009555728 0.0075 0.02294755 -0.02866718 0.0075 0.02884266 -0.02819078 0.0075 0.0302606 -0.009396926 0.0075 0.0234202 -0.009214762 0.0075 0.02388435 -0.02764429 0.0075 0.03165304 -0.009009688 0.0075 0.02433884 -0.02702907 0.0075 0.03301651 -0.008782216 0.0075 0.02478254 -0.02634665 0.0075 0.03434762 -0.02559873 0.0075 0.03564305 -0.008532908 0.0075 0.02521435 -0.008262387 0.0075 0.0256332 -0.02478716 0.0075 0.0368996 -0.02391397 0.0075 0.03811413 -0.007971325 0.0075 0.02603804 -0.007660444 0.0075 0.02642788 -0.02298133 0.0075 0.03928363 -0.007330519 0.0075 0.02680173 -0.02199156 0.0075 0.04040518 -0.006982368 0.0075 0.02715867 -0.02094711 0.0075 0.04147601 -0.006616858 0.0075 0.02749781 -0.01985057 0.0075 0.04249343 -0.006234898 0.0075 0.02781832 -0.01870469 0.0075 0.04345494 -0.005837437 0.0075 0.02811938 -0.01751231 0.0075 0.04435814 0.008532908 0.0075 0.01478565 0.008782216 0.0075 0.01521746 0.008262387 0.0075 0.0143668 0.007971325 0.0075 0.01396196 0.007660444 0.0075 0.01357212 0.007330519 0.0075 0.01319827 0.006982368 0.0075 0.01284133 0.006616858 0.0075 0.01250219 0.006234898 0.0075 0.01218169 0.005837437 0.0075 0.01188062 0.005425463 0.0075 0.01159974 0.005 0.0075 0.01133975 0.004562107 0.0075 0.01110128 0.004112871 0.0075 0.01088494 0.00365341 0.0075 0.01069126 0.003184866 0.0075 0.01052073 0.002708405 0.0075 0.01037376 0.002225209 0.0075 0.01025072 0.001736482 0.0075 0.01015192 0.001243437 0.0075 0.01007761 0.0007473009 0.0075 0.01002796 0.0002493069 0.0075 0.01000311 -0.005425463 0.0075 0.02840026 -0.01627639 0.0075 0.04520078 -0.005 0.0075 0.02866025 -0.015 0.0075 0.04598076 -0.004562107 0.0075 0.02889872 -0.01368632 0.0075 0.04669616 -0.01233861 0.0075 0.04734518 -0.004112871 0.0075 0.02911506 -0.00365341 0.0075 0.02930874 -0.01096023 0.0075 0.04792621 -0.003184866 0.0075 0.02947927 -0.0095546 0.0075 0.04843782 -0.002708405 0.0075 0.02962624 -0.008125214 0.0075 0.04887873 -0.002225209 0.0075 0.02974928 -0.006675628 0.0075 0.04924784 -0.001736482 0.0075 0.02984808 -0.005209445 0.0075 0.04954423 -0.003730311 0.0075 0.04976718 -0.001243437 0.0075 0.02992239 -0.0007473009 0.0075 0.02997204 -0.002241903 0.0075 0.04991611 -0.0002493069 0.0075 0.02999689 -0.0007479208 0.0075 0.04999068 0.03 0.0075 0.02 0.009987569 0.0075 0.01950154 0.01 0.0075 0.02 0.009950308 0.0075 0.01900432 0.009888309 0.0075 0.01850958 0.009801724 0.0075 0.01801854 0.009690773 0.0075 0.01753243 0.009555728 0.0075 0.01705245 0.009396926 0.0075 0.0165798 0.009214762 0.0075 0.01611565 0.009009688 0.0075 0.01566116 0.0007479208 0.0075 0.04999068 0.0002493069 0.0075 0.02999689 0.02996271 0.0075 0.02149538 0.009987569 0.0075 0.02049846 0.002241903 0.0075 0.04991611 0.0007473009 0.0075 0.02997204 0.02985092 0.0075 0.02298704 0.009950308 0.0075 0.02099568 0.001243437 0.0075 0.02992239 0.003730311 0.0075 0.04976718 0.001736482 0.0075 0.02984808 0.02966492 0.0075 0.02447127 0.009888309 0.0075 0.02149042 0.005209445 0.0075 0.04954423 0.02940517 0.0075 0.02594438 0.009801724 0.0075 0.02198146 0.009690773 0.0075 0.02246757 0.006675628 0.0075 0.04924784 0.002225209 0.0075 0.02974928 0.002708405 0.0075 0.02962624 0.02907232 0.0075 0.02740272 0.009555728 0.0075 0.02294755 0.008125214 0.0075 0.04887873 0.003184866 0.0075 0.02947927 0.02866718 0.0075 0.02884266 0.0095546 0.0075 0.04843782 0.00365341 0.0075 0.02930874 0.02819078 0.0075 0.0302606 0.009396926 0.0075 0.0234202 0.01096023 0.0075 0.04792621 0.02764429 0.0075 0.03165304 0.009214762 0.0075 0.02388435 0.009009688 0.0075 0.02433884 0.01233861 0.0075 0.04734518 0.004112871 0.0075 0.02911506 0.004562107 0.0075 0.02889872 0.02702907 0.0075 0.03301651 0.008782216 0.0075 0.02478254 0.01368632 0.0075 0.04669616 0.02634665 0.0075 0.03434762 0.008532908 0.0075 0.02521435 0.015 0.0075 0.04598076 0.005 0.0075 0.02866025 0.005425463 0.0075 0.02840026 0.02559873 0.0075 0.03564305 0.01627639 0.0075 0.04520078 0.005837437 0.0075 0.02811938 0.02478716 0.0075 0.0368996 0.008262387 0.0075 0.0256332 0.01751231 0.0075 0.04435814 0.02391397 0.0075 0.03811413 0.007971325 0.0075 0.02603804 0.01870469 0.0075 0.04345494 0.006234898 0.0075 0.02781832 0.02298133 0.0075 0.03928363 0.007660444 0.0075 0.02642788 0.01985057 0.0075 0.04249343 0.006616858 0.0075 0.02749781 0.02199156 0.0075 0.04040518 0.007330519 0.0075 0.02680173 0.02094711 0.0075 0.04147601 0.006982368 0.0075 0.02715867 -0.007330519 0.0175 0.01319827 -0.006982368 0.0175 0.01284133 -0.006616858 0.0175 0.01250219 -0.007660444 0.0175 0.01357212 -0.006234898 0.0175 0.01218169 -0.007971325 0.0175 0.01396196 -0.005837437 0.0175 0.01188062 -0.008262387 0.0175 0.0143668 -0.005425463 0.0175 0.01159974 -0.008532908 0.0175 0.01478565 -0.005 0.0175 0.01133975 -0.008782216 0.0175 0.01521746 -0.004562107 0.0175 0.01110128 -0.009009688 0.0175 0.01566116 -0.004112871 0.0175 0.01088494 -0.009214762 0.0175 0.01611565 -0.00365341 0.0175 0.01069126 -0.009396926 0.0175 0.0165798 -0.003184866 0.0175 0.01052073 -0.009555728 0.0175 0.01705245 -0.002708405 0.0175 0.01037376 -0.009690773 0.0175 0.01753243 -0.002225209 0.0175 0.01025072 -0.009801724 0.0175 0.01801854 -0.001736482 0.0175 0.01015192 -0.009888309 0.0175 0.01850958 -0.001243437 0.0175 0.01007761 -0.009950308 0.0175 0.01900432 -0.0007473009 0.0175 0.01002796 -0.009987569 0.0175 0.01950154 -0.0002493069 0.0175 0.01000311 -0.01 0.0175 0.02 -0.02996271 0.0175 0.02149538 0.0002493069 0.0175 0.01000311 -0.009987569 0.0175 0.02049846 -0.02985092 0.0175 0.02298704 0.0007473009 0.0175 0.01002796 -0.009950308 0.0175 0.02099568 0.001243437 0.0175 0.01007761 -0.009888309 0.0175 0.02149042 -0.02966492 0.0175 0.02447127 0.001736482 0.0175 0.01015192 -0.009801724 0.0175 0.02198146 -0.02940517 0.0175 0.02594438 0.002225209 0.0175 0.01025072 -0.009690773 0.0175 0.02246757 -0.02907232 0.0175 0.02740272 0.002708405 0.0175 0.01037376 -0.009555728 0.0175 0.02294755 -0.02866718 0.0175 0.02884266 0.003184866 0.0175 0.01052073 -0.009396926 0.0175 0.0234202 -0.02819078 0.0175 0.0302606 0.00365341 0.0175 0.01069126 -0.009214762 0.0175 0.02388435 -0.02764429 0.0175 0.03165304 0.004112871 0.0175 0.01088494 -0.009009688 0.0175 0.02433884 -0.02702907 0.0175 0.03301651 0.004562107 0.0175 0.01110128 -0.008782216 0.0175 0.02478254 -0.02634665 0.0175 0.03434762 0.005 0.0175 0.01133975 -0.008532908 0.0175 0.02521435 -0.02559873 0.0175 0.03564305 0.005425463 0.0175 0.01159974 -0.008262387 0.0175 0.0256332 -0.02478716 0.0175 0.0368996 0.005837437 0.0175 0.01188062 -0.007971325 0.0175 0.02603804 -0.02391397 0.0175 0.03811413 0.006234898 0.0175 0.01218169 -0.007660444 0.0175 0.02642788 -0.02298133 0.0175 0.03928363 0.006616858 0.0175 0.01250219 -0.007330519 0.0175 0.02680173 -0.02199156 0.0175 0.04040518 0.006982368 0.0175 0.01284133 0.007330519 0.0175 0.01319827 -0.02094711 0.0175 0.04147601 -0.006982368 0.0175 0.02715867 0.007660444 0.0175 0.01357212 -0.01985057 0.0175 0.04249343 -0.006234898 0.0175 0.02781832 -0.006616858 0.0175 0.02749781 -0.01870469 0.0175 0.04345494 -0.01751231 0.0175 0.04435814 -0.005425463 0.0175 0.02840026 -0.005837437 0.0175 0.02811938 -0.01627639 0.0175 0.04520078 -0.015 0.0175 0.04598076 -0.005 0.0175 0.02866025 -0.01368632 0.0175 0.04669616 -0.004112871 0.0175 0.02911506 -0.004562107 0.0175 0.02889872 -0.01233861 0.0175 0.04734518 -0.01096023 0.0175 0.04792621 -0.003184866 0.0175 0.02947927 -0.00365341 0.0175 0.02930874 -0.0095546 0.0175 0.04843782 -0.008125214 0.0175 0.04887873 -0.002708405 0.0175 0.02962624 -0.006675628 0.0175 0.04924784 -0.002225209 0.0175 0.02974928 -0.005209445 0.0175 0.04954423 -0.001736482 0.0175 0.02984808 -0.003730311 0.0175 0.04976718 -0.001243437 0.0175 0.02992239 -0.002241903 0.0175 0.04991611 -0.0007473009 0.0175 0.02997204 -0.0007479208 0.0175 0.04999068 0.0002493069 0.0175 0.02999689 -0.0002493069 0.0175 0.02999689 0.03 0.0175 0.02 0.007971325 0.0175 0.01396196 0.008262387 0.0175 0.0143668 0.008532908 0.0175 0.01478565 0.008782216 0.0175 0.01521746 0.009009688 0.0175 0.01566116 0.009214762 0.0175 0.01611565 0.009396926 0.0175 0.0165798 0.009555728 0.0175 0.01705245 0.009690773 0.0175 0.01753243 0.009801724 0.0175 0.01801854 0.009888309 0.0175 0.01850958 0.009950308 0.0175 0.01900432 0.009987569 0.0175 0.01950154 0.01 0.0175 0.02 0.0007479208 0.0175 0.04999068 0.0007473009 0.0175 0.02997204 0.02996271 0.0175 0.02149538 0.009987569 0.0175 0.02049846 0.002241903 0.0175 0.04991611 0.001243437 0.0175 0.02992239 0.02985092 0.0175 0.02298704 0.009950308 0.0175 0.02099568 0.003730311 0.0175 0.04976718 0.02966492 0.0175 0.02447127 0.009888309 0.0175 0.02149042 0.005209445 0.0175 0.04954423 0.001736482 0.0175 0.02984808 0.02940517 0.0175 0.02594438 0.009801724 0.0175 0.02198146 0.006675628 0.0175 0.04924784 0.002225209 0.0175 0.02974928 0.02907232 0.0175 0.02740272 0.009690773 0.0175 0.02246757 0.008125214 0.0175 0.04887873 0.002708405 0.0175 0.02962624 0.02866718 0.0175 0.02884266 0.009555728 0.0175 0.02294755 0.009396926 0.0175 0.0234202 0.0095546 0.0175 0.04843782 0.003184866 0.0175 0.02947927 0.02819078 0.0175 0.0302606 0.01096023 0.0175 0.04792621 0.004112871 0.0175 0.02911506 0.00365341 0.0175 0.02930874 0.02764429 0.0175 0.03165304 0.009214762 0.0175 0.02388435 0.01233861 0.0175 0.04734518 0.02702907 0.0175 0.03301651 0.009009688 0.0175 0.02433884 0.008782216 0.0175 0.02478254 0.01368632 0.0175 0.04669616 0.005 0.0175 0.02866025 0.004562107 0.0175 0.02889872 0.02634665 0.0175 0.03434762 0.008532908 0.0175 0.02521435 0.015 0.0175 0.04598076 0.005425463 0.0175 0.02840026 0.02559873 0.0175 0.03564305 0.008262387 0.0175 0.0256332 0.01627639 0.0175 0.04520078 0.02478716 0.0175 0.0368996 0.01751231 0.0175 0.04435814 0.006234898 0.0175 0.02781832 0.005837437 0.0175 0.02811938 0.02391397 0.0175 0.03811413 0.007971325 0.0175 0.02603804 0.01870469 0.0175 0.04345494 0.02298133 0.0175 0.03928363 0.007660444 0.0175 0.02642788 0.007330519 0.0175 0.02680173 0.01985057 0.0175 0.04249343 0.006616858 0.0175 0.02749781 0.02199156 0.0175 0.04040518 0.02094711 0.0175 0.04147601 0.006982368 0.0175 0.02715867</float_array>
          <technique_common>
            <accessor count="864" source="#cubeverts-array0-array" stride="3">
              <param type="float" name="X"/>
              <param type="float" name="Y"/>
              <param type="float" name="Z"/>
            </accessor>
          </technique_common>
        </source>
        <source id="cubenormals-array0">
          <float_array count="5196" id="cubenormals-array0-array">-1 -0 -0 -1 -0 0 -1 -0 0 -1 -0 0 -1 -0 0 -1 -0 0 -1 -0 0 -1 -0 0 -1 -0 0 -1 -0 0 -1 -0 0 -1 -0 0 -1 -0 0 -1 -0 0 -1 -0 0 -1 -0 0 -1 -0 0 -1 -0 0 -1 -0 0 -1 -0 0 -1 -0 0 -1 -0 0 -1 -0 0 -1 -0 0 -1 -0 0 -1 -0 0 -1 -0 0 -1 0 -0 -1 0 -0 -1 0 -0 -1 0 -0 -1 0 -0 -1 0 -0 -1 0 -0 -1 0 -0 -1 0 -0 -1 0 -0 -1 0 -0 -1 0 -0 -1 0 -0 -1 0 -0 -1 0 -0 -1 0 -0 -1 0 -0 -1 0 -0 -1 0 -0 -1 0 -0 -1 0 -0 -1 0 -0 -1 0 -0 -1 0 -0 -1 -0 -0 -1 0 -0 -1 0 -0 0 1 0 0 1 0 0 1 0 0 1 0 0 1 0 0 1 0 0 1 0 0 1 0 0 1 0 0 1 0 0 1 0 0 1 0 0 1 0 0 1 0 0 1 0 0 1 0 0 1 0 0 1 0 0 1 0 0 1 0 0 1 0 0 1 0 0 1 0 0 1 0 0 1 0 0 1 0 0 1 0 0 1 0 0 1 0 0 1 0 0 1 0 0 1 0 0 1 0 0 1 0 0 1 0 0 1 0 0 1 0 0 1 0 0 1 0 0 1 0 0 1 0 0 1 0 0 1 0 0 1 0 0 1 0 0 1 0 0 1 0 0 1 0 0 1 0 0 1 0 0 1 0 0 1 0 0 1 0 0 1 0 0 1 0 0 1 0 0 1 0 0 1 0 0 1 0 0 1 0 0 1 0 0 1 0 0 1 0 0 1 0 0 1 0 0 1 0 0 1 0 0 1 0 0 1 0 0 1 0 0 1 0 0 1 0 0 1 0 0 1 0 0 1 0 0 1 0 0 1 0 0 1 0 0 1 0 0 1 0 0 1 0 0 1 0 0 1 0 0 1 0 0 1 0 0 1 0 0 1 0 0 1 0 0 1 0 0 1 0 0 1 0 0 1 0 0 1 0 0 1 0 0 1 0 0 1 0 0 1 0 0 1 0 0 1 0 0 1 0 0 1 0 0 1 0 0 1 0 0 1 0 0 1 0 0 1 0 0 1 0 0 1 0 0 1 0 0 1 0 0 1 0 0 1 0 0 1 0 0 1 0 -0 1 0 0 1 0 0 1 0 0 1 0 0 1 0 -0 1 0 0 1 0 0 1 0 0 1 0 0 1 0 -0 1 0 -0 1 0 0 1 0 0 1 0 0 1 0 0 1 0 0 1 0 0 1 0 0 1 0 0 1 0 0 1 0 -0 1 0 -0 1 0 0 1 0 -0 1 0 -0 1 0 0 1 0 0 1 0 -0 1 0 0 1 0 -0 1 0 0 1 0 -0 1 0 0 1 0 -0 1 0 -0 1 0 0 1 0 0 1 0 -0 1 0 0 1 0 -0 1 0 0 1 0 -0 1 0 -0 1 0 0 1 0 -0 1 0 -0 1 0 -0 1 0 -0 1 0 -0 1 0 -0 1 0 -0 1 0 -0 1 0 -0 1 0 -0 1 0 0 1 0 0 1 0 0 1 0 0 1 0 0 1 0 0 1 0 0 1 0 0 1 0 0 1 0 0 1 0 0 1 0 0 1 0 0 1 0 0 1 0 0 1 0 0 1 0 0 1 0 0 1 0 0 1 0 0 1 0 0 1 0 0 1 0 0 1 0 -0 0.9994646 0.03271789 0 0.9994646 0.03271789 -0 0.9951847 0.09801763 0 0.9951847 0.09801763 -0 0.9866435 0.1628946 0 0.9866435 0.1628946 -0 0.9738768 0.2270774 0 0.9738768 0.2270774 -0 0.9569408 0.2902831 0 0.9569408 0.2902831 -0 0.9359056 0.352251 0 0.9359056 0.352251 -0 0.9108639 0.4127068 0 0.9108639 0.4127068 -0 0.8819198 0.4713994 0 0.8819198 0.4713994 -0 0.8492026 0.5280671 0 0.8492026 0.5280671 -0 0.8128477 0.5824764 0 0.8128477 0.5824764 -0 0.7730117 0.6343918 0 0.7730117 0.6343918 0 0.7298639 0.6835925 -0 0.7298639 0.6835925 0 0.6835912 0.7298651 -0 0.6835912 0.7298651 0 0.6343933 0.7730105 -0 0.6343933 0.7730105 -0 0.582478 0.8128465 0 0.582478 0.8128465 0 0.5280671 0.8492026 -0 0.5280671 0.8492026 -0 0.4713975 0.8819209 0 0.4713975 0.8819209 -0 0.4127068 0.9108639 0 0.4127068 0.9108639 -0 0.3522502 0.9359059 0 0.3522502 0.9359059 -0 0.2902831 0.9569408 0 0.2902831 0.9569408 -0 0.2270774 0.9738768 0 0.2270774 0.9738768 -0 0.1628949 0.9866434 0 0.1628949 0.9866434 -0 0.09801739 0.9951847 0 0.09801739 0.9951847 -0 0.03271797 0.9994646 0 0.03271797 0.9994646 0.9996892 0 0.02493077 0.9996892 0 0.02493077 0.9972038 0 0.07472982 0.9972038 0 0.07472982 0.9922392 0 0.1243441 0.9922392 0 0.1243441 0.9848077 0 0.1736484 0.9848077 0 0.1736484 0.9749281 0 0.2225204 0.9749281 0 0.2225204 0.9626243 0 0.2708403 0.9626243 0 0.2708403 0.9479273 0 0.3184868 0.9479273 0 0.3184868 0.9308738 0 0.3653408 0.9308738 0 0.3653408 0.9115059 0 0.411287 0.9115059 0 0.411287 0.8898714 0 0.4562114 0.8898714 0 0.4562114 0.8660254 0 0.5000001 0.8660254 0 0.5000001 0.8400259 0 0.5425463 0.8400259 0 0.5425463 0.8119381 0 0.5837436 0.8119381 0 0.5837436 0.7818311 0 0.6234903 0.7818311 0 0.6234903 0.7497818 0 0.6616852 0.7497818 0 0.6616852 0.7158672 0 0.6982364 0.7158672 0 0.6982364 0.6801718 0 0.7330527 0.6801718 0 0.7330527 0.6427886 0 0.7660437 0.6427886 0 0.7660437 0.6038036 0 0.7971331 0.6038036 0 0.7971331 0.5633213 0 0.8262379 0.5633213 0 0.8262379 0.5214347 0 0.8532912 0.5214347 0 0.8532912 0.4782543 0 0.8782214 0.4782543 0 0.8782214 0.4338838 0 0.9009688 0.4338838 0 0.9009688 0.388434 0 0.9214765 0.388434 0 0.9214765 0.3420203 0 0.9396926 0.3420203 0 0.9396926 0.2947547 0 0.955573 0.2947547 0 0.955573 0.2467576 0 0.9690773 0.2467576 0 0.9690773 0.1981456 0 0.9801726 0.1981456 0 0.9801726 0.1490439 0 0.9888306 0.1490439 0 0.9888306 0.09956753 0 0.9950308 0.09956753 0 0.9950308 0.04984624 0 0.9987569 0.04984624 0 0.9987569 0 0 1 0 0 1 -0.04984624 0 0.9987569 -0.04984624 0 0.9987569 -0.09956753 0 0.9950308 -0.09956753 0 0.9950308 -0.1490439 0 0.9888306 -0.1490439 0 0.9888306 -0.1981456 0 0.9801726 -0.1981456 0 0.9801726 -0.2467576 0 0.9690773 -0.2467576 0 0.9690773 -0.2947547 0 0.955573 -0.2947547 0 0.955573 -0.3420203 0 0.9396926 -0.3420203 0 0.9396926 -0.388434 0 0.9214765 -0.388434 0 0.9214765 -0.4338838 0 0.9009688 -0.4338838 0 0.9009688 -0.4782543 0 0.8782214 -0.4782543 0 0.8782214 -0.5214347 0 0.8532912 -0.5214347 0 0.8532912 -0.5633213 0 0.8262379 -0.5633213 0 0.8262379 -0.6038036 0 0.7971331 -0.6038036 0 0.7971331 -0.6427886 0 0.7660437 -0.6427886 0 0.7660437 -0.6801718 0 0.7330527 -0.6801718 0 0.7330527 -0.7158672 0 0.6982364 -0.7158672 0 0.6982364 -0.7497818 0 0.6616852 -0.7497818 0 0.6616852 -0.7818311 0 0.6234903 -0.7818311 0 0.6234903 -0.8119381 0 0.5837436 -0.8119381 0 0.5837436 -0.8400259 0 0.5425463 -0.8660254 0 0.5000001 -0.8400259 0 0.5425463 -0.8660254 0 0.5000001 -0.8898714 0 0.4562114 -0.8898714 0 0.4562114 -0.9115059 0 0.411287 -0.9308738 0 0.3653408 -0.9115059 0 0.411287 -0.9308738 0 0.3653408 -0.9479273 0 0.3184868 -0.9479273 0 0.3184868 -0.9626243 0 0.2708403 -0.9626243 0 0.2708403 -0.9749281 0 0.2225204 -0.9749281 0 0.2225204 -0.9848077 0 0.1736484 -0.9848077 0 0.1736484 -0.9922392 0 0.1243441 -0.9922392 0 0.1243441 -0.9972038 0 0.07472982 -0.9972038 0 0.07472982 -0.9996892 0 0.02493077 -0.9996892 0 0.02493077 0 -0 1 0 0 1 -0 -1 0 0 -1 0 0 -1 0 -0 -1 0 0 -1 0 0 -1 0 0 -1 0 0 -1 0 0 -1 0 0 -1 0 0 -1 0 0 -1 0 0 -1 0 0 -1 0 0 -1 0 0 -1 0 0 -1 0 0 -1 0 0 -1 0 0 -1 0 0 -1 0 0 -1 0 0 -1 0 0 -1 0 0 -1 0 0 -1 0 0 -1 0 0 -1 0 0 -1 0 0 -1 0 0 -1 0 0 -1 0 0 -1 0 0 -1 0 0 -1 0 0 -1 0 0 -1 0 0 -1 0 0 -1 0 0 -1 0 0 -1 0 0 -1 0 0 -1 0 0 -1 0 0 -1 0 0 -1 0 0 -1 0 0 -1 0 0 -1 0 0 -1 0 0 -1 0 0 -1 0 0 -1 0 0 -1 0 0 -1 0 0 -1 0 0 -1 0 0 -1 0 0 -1 0 0 -1 0 0 -1 0 0 -1 0 0 -1 0 0 -1 0 0 -1 0 0 -1 0 0 -1 0 0 -1 0 0 -1 0 0 -1 0 0 -1 0 0 -1 0 0 -1 0 0 -1 0 0 -1 0 0 -1 0 0 -1 0 0 -1 0 0 -1 0 0 -1 0 -0 -1 0 0 -1 0 0 -1 0 0 -1 0 -0 -1 0 0 -1 0 -0 -1 0 0 -1 0 0 -1 0 -0 -1 0 0 -1 0 -0 -1 0 -0 -1 0 0 -1 0 0 -1 0 -0 -1 0 0 -1 0 -0 -1 0 0 -1 0 -0 -1 0 -0 -1 0 0 -1 0 0 -1 0 -0 -1 0 0 -1 0 -0 -1 0 -0 -1 0 0 -1 0 0 -1 0 0 -1 0 -0 -1 0 0 -1 0 -0 -1 0 0 -1 0 0 -1 0 0 -1 0 0 -1 0 0 -1 0 0 -1 0 0 -1 0 0 -1 0 0 -1 0 0 -1 0 0 -1 0 0 -1 0 0 -1 0 0 -1 0 0 -1 0 0 -1 0 0 -1 0 0 -1 0 0 -1 0 0 -1 0 0 -1 0 0 -1 0 -0 -1 0 0 -1 0 0 -1 0 -0 -1 0 0 -1 0 0 -1 0 0 -1 0 -0 -1 0 0 -1 0 0 -1 0 0 -1 0 -0 -1 0 0 -1 0 0 -1 0 0 -1 0 0 -1 0 0 -1 0 -0 -1 0 0 -1 0 0 -1 0 -0 -1 0 0 -1 0 0 -1 0 0 -1 0 -0 -1 0 0 -1 0 0 -1 0 -0 -1 0 0 -1 0 0 -1 0 0 -1 0 0 -1 0 -0 -1 0 0 -1 0 0 -1 0 0 -1 0 -0 -1 0 0 -1 0 0 -1 0 -0 -1 0 0 -1 0 0 -1 0 0 -1 0 0 -1 0 -0 -1 0 0 -1 0 0 -1 0 0 -1 0 -0 -1 0 0 -1 0 0 -1 0 -0 -1 0 0 -1 0 0 -1 0 -0 -1 0 0 -1 0 0 -1 0 0 -0.03271797 0.9994646 0 -0.03271797 0.9994646 0 -0.09801739 0.9951847 0 -0.09801739 0.9951847 0 -0.1628949 0.9866434 0 -0.1628949 0.9866434 0 -0.2270774 0.9738768 0 -0.2270774 0.9738768 0 -0.2902831 0.9569408 0 -0.2902831 0.9569408 0 -0.3522502 0.9359059 0 -0.3522502 0.9359059 0 -0.4127068 0.9108639 0 -0.4127068 0.9108639 0 -0.4713975 0.8819209 0 -0.4713975 0.8819209 0 -0.5280671 0.8492026 0 -0.5280671 0.8492026 0 -0.582478 0.8128465 0 -0.582478 0.8128465 0 -0.6343933 0.7730105 0 -0.6343933 0.7730105 0 -0.6835912 0.7298651 0 -0.6835912 0.7298651 0 -0.7298639 0.6835925 0 -0.7298639 0.6835925 0 -0.7730117 0.6343918 0 -0.7730117 0.6343918 0 -0.8128477 0.5824764 0 -0.8128477 0.5824764 0 -0.8492026 0.5280671 0 -0.8492026 0.5280671 0 -0.8819198 0.4713994 0 -0.9108639 0.4127068 0 -0.8819198 0.4713994 0 -0.9359056 0.352251 0 -0.9108639 0.4127068 0 -0.9359056 0.352251 0 -0.9569408 0.2902831 0 -0.9569408 0.2902831 0 -0.9738768 0.2270774 0 -0.9738768 0.2270774 0 -0.9866435 0.1628946 0 -0.9866435 0.1628946 0 -0.9951847 0.09801763 0 -0.9951847 0.09801763 0 -0.9994646 0.03271789 0 -0.9994646 0.03271789 0 0 -1 0 0 -1 -0 -1 0 0 -1 0 -0 -1 0 0 -1 0 -0 -1 0 0 -1 0 -0 -1 0 0 -1 0 -0 -1 0 0 -1 0 0 -1 0 -0 -1 0 0 -1 0 0 -1 0 0 -1 0 0 -1 0 0 -1 0 0 -1 0 0 -1 0 0 -1 0 0 -1 0 0 -1 0 0 -1 0 0 -1 0 0 -1 0 0 -1 0 0 -1 0 0 -1 0 0 -1 0 0 -1 0 0 -1 0 0 -1 0 0 -1 0 0 -1 0 0 -1 0 0 -1 0 0 -1 0 0 -1 0 0 -1 0 0 -1 0 0 -1 0 0 -1 0 0 -1 0 0 -1 0 0 -1 0 0 -1 0 0 -1 0 0 -1 0 0 -1 0 0 -1 0 0 -1 0 0 -1 0 0 -1 0 0 -1 0 0 -1 0 0 -1 0 0 -1 0 0 -1 0 0 -1 0 0 -1 0 0 -1 0 0 -1 0 0 -1 0 0 -1 0 -0 -1 0 0 -1 0 -0 -1 0 0 -1 0 -0 -1 0 0 -1 0 0 -1 0 0 -1 0 0 -1 0 0 -1 0 0 -1 0 0 -1 0 0 -1 0 0 -1 0 0 -1 0 0 -1 0 0 -1 0 0 -1 0 0 -1 0 0 -1 0 0 -1 0 0 -1 0 0 -1 0 0 -1 0 0 -1 0 0 -1 0 0 -1 0 0 -1 0 0 -1 0 -0 -1 0 0 -1 0 -0 -1 0 0 -1 0 -0 -1 0 0 -1 0 0 -1 0 -0 -1 0 -0 -1 0 0 -1 0 -0 -1 0 0 -1 0 -0 -1 0 0 -1 0 -0 -1 0 0 -1 0 -0 -1 0 0 -1 0 0 -1 0 -0 -1 0 -0 -1 0 -0 -1 0 0 -1 0 0 -1 0 0 -1 0 0 -1 0 0 -1 0 0 -1 0 0 -1 0 0 -1 0 0 -1 0 0 -1 0 0 -1 0 0 -1 0 0 -1 0 0 -1 0 0 -1 0 0 -1 0 0 -1 0 0 -1 0 0 -1 0 -0 -1 0 0 -1 0 0 -1 0 0 -1 0 0 -1 0 -0 -1 0 0 -1 0 0 -1 0 -0 -1 0 0 -1 0 0 -1 0 0 -1 0 0 -1 0 0 -1 0 -0 -1 0 0 -1 0 0 -1 0 0 -1 0 -0 -1 0 0 -1 0 0 -1 0 -0 -1 0 0 -1 0 0 -1 0 -0 -1 0 0 -1 0 0 -1 0 0 -1 0 0 -1 0 0 -1 0 -0 -1 0 0 -1 0 0 -1 0 -0 -1 0 0 -1 0 0 -1 0 0 -1 0 0 -1 0 -0 -1 0 0 -1 0 0 -1 0 -0 -1 0 0 -1 0 0 -1 0 -0 -1 0 0 -1 0 0 -1 0 0 -1 0 -0 -1 0 0 -1 0 0 -1 0 0 -1 0 -0 -1 0 0 -1 0 0 -1 0 -0 -1 0 0 -1 0 0 -1 0 0 1 0 0 1 0 0 1 0 0 1 0 0 1 0 0 1 0 0 1 0 0 1 0 0 1 0 0 1 0 0 1 0 0 1 0 0 1 0 0 1 0 0 1 0 0 1 0 0 1 0 0 1 0 0 1 0 0 1 0 0 1 0 0 1 0 0 1 0 0 1 0 0 1 0 0 1 0 0 1 0 0 1 0 0 1 0 0 1 0 0 1 0 0 1 0 0 1 0 0 1 0 0 1 0 0 1 0 0 1 0 0 1 0 0 1 0 0 1 0 0 1 0 0 1 0 0 1 0 0 1 0 0 1 0 0 1 0 0 1 0 0 1 0 0 1 0 0 1 0 0 1 0 0 1 0 0 1 0 0 1 0 0 1 0 0 1 0 0 1 0 0 1 0 0 1 0 0 1 0 0 1 0 0 1 0 0 1 0 0 1 0 0 1 0 0 1 0 0 1 0 0 1 0 0 1 0 0 1 0 0 1 0 0 1 0 0 1 0 0 1 0 0 1 0 0 1 0 0 1 0 0 1 0 0 1 0 0 1 0 0 1 0 0 1 0 0 1 0 0 1 0 0 1 0 0 1 0 0 1 0 0 1 0 0 1 0 0 1 0 0 1 0 0 1 0 0 1 0 0 1 0 0 1 0 0 1 0 0 1 0 0 1 0 0 1 0 0 1 0 0 1 0 0 1 0 0 1 0 0 1 0 0 1 0 0 1 0 0 1 0 0 1 0 0 1 0 0 1 0 0 1 0 0 1 0 0 1 0 0 1 0 0 1 0 0 1 0 0 1 0 0 1 0 0 1 0 0 1 0 0 1 0 0 1 0 0 1 0 0 1 0 0 1 0 0 1 0 0 1 0 0 1 0 0 1 0 0 1 0 0 1 0 0 1 0 0 1 0 0 1 0 0 1 0 0 1 0 0 1 0 0 1 0 0 1 0 0 1 0 0 1 0 0 1 0 0 1 0 0 1 0 0 1 0 0 1 0 0 1 0 0 1 0 0 1 0 0 1 0 0 1 0 0 1 0 0 1 0 0 1 0 0 1 0 0 1 0 0 1 0 0 1 0 0 1 0 0 1 0 0 1 0 0 1 0 0 1 0 0 1 0 0 1 0 0 1 0 0 1 0 0 1 0 0 1 0 0 1 0 0 1 0 0 1 0 0 1 0 0 1 0 0 1 0 0 1 0 0 1 0 0 1 0 0 1 0 0 1 0 0 1 0 0 1 0 0 1 0 0 1 0 0 1 0 0 1 0 0 1 0 0 1 0 0 1 0 0 1 0 0 1 0 0 1 0 0.9996892 -0 0.02493077 0.9972038 -0 0.07472982 0.9996892 0 0.02493077 0.9922392 -0 0.1243441 0.9972038 0 0.07472982 0.9848077 -0 0.1736484 0.9922392 0 0.1243441 0.9749281 -0 0.2225204 0.9848077 0 0.1736484 0.9626243 -0 0.2708403 0.9749281 0 0.2225204 0.9479273 -0 0.3184868 0.9626243 0 0.2708403 0.9308738 -0 0.3653408 0.9479273 0 0.3184868 0.9115059 -0 0.411287 0.9308738 0 0.3653408 0.8898714 -0 0.4562114 0.9115059 0 0.411287 0.8660254 -0 0.5000001 0.8898714 0 0.4562114 0.8400259 -0 0.5425463 0.8660254 0 0.5000001 0.8119381 -0 0.5837436 0.8400259 0 0.5425463 0.7818311 -0 0.6234903 0.8119381 0 0.5837436 0.7497818 -0 0.6616852 0.7818311 0 0.6234903 0.7158672 -0 0.6982364 0.7497818 0 0.6616852 0.6801718 -0 0.7330527 0.7158672 0 0.6982364 0.6801718 0 0.7330527 0.6427886 -0 0.7660437 0.6427886 0 0.7660437 0.6038036 -0 0.7971331 0.6038036 0 0.7971331 0.5633213 -0 0.8262379 0.5214347 -0 0.8532912 0.5633213 0 0.8262379 0.4782543 -0 0.8782214 0.5214347 0 0.8532912 0.4338838 -0 0.9009688 0.4782543 0 0.8782214 0.388434 -0 0.9214765 0.4338838 0 0.9009688 0.3420203 -0 0.9396926 0.388434 0 0.9214765 0.2947547 -0 0.955573 0.3420203 0 0.9396926 0.2467576 -0 0.9690773 0.2947547 0 0.955573 0.2467576 0 0.9690773 0.1981456 -0 0.9801726 0.1981456 0 0.9801726 0.1490439 -0 0.9888306 0.1490439 0 0.9888306 0.09956753 -0 0.9950308 0.09956753 0 0.9950308 0.04984624 -0 0.9987569 0.04984624 0 0.9987569 0 -0 1 0 0 1 -0.04984624 0 0.9987569 -0.04984624 0 0.9987569 -0.09956753 0 0.9950308 -0.1490439 0 0.9888306 -0.09956753 0 0.9950308 -0.1490439 0 0.9888306 -0.1981456 0 0.9801726 -0.1981456 0 0.9801726 -0.2467576 0 0.9690773 -0.2947547 0 0.955573 -0.2467576 0 0.9690773 -0.2947547 0 0.955573 -0.3420203 0 0.9396926 -0.388434 0 0.9214765 -0.3420203 0 0.9396926 -0.4338838 0 0.9009688 -0.388434 0 0.9214765 -0.4338838 0 0.9009688 -0.4782543 0 0.8782214 -0.5214347 0 0.8532912 -0.4782543 0 0.8782214 -0.5633213 0 0.8262379 -0.5214347 0 0.8532912 -0.5633213 0 0.8262379 -0.6038036 0 0.7971331 -0.6038036 0 0.7971331 -0.6427886 0 0.7660437 -0.6427886 0 0.7660437 -0.6801718 0 0.7330527 -0.6801718 0 0.7330527 -0.7158672 0 0.6982364 -0.7497818 0 0.6616852 -0.7158672 0 0.6982364 -0.7497818 0 0.6616852 -0.7818311 0 0.6234903 -0.7818311 0 0.6234903 -0.8119381 0 0.5837436 -0.8119381 0 0.5837436 -0.8400259 0 0.5425463 -0.8660254 0 0.5000001 -0.8400259 0 0.5425463 -0.8660254 0 0.5000001 -0.8898714 0 0.4562114 -0.8898714 0 0.4562114 -0.9115059 0 0.411287 -0.9308738 0 0.3653408 -0.9115059 0 0.411287 -0.9308738 0 0.3653408 -0.9479273 0 0.3184868 -0.9479273 0 0.3184868 -0.9626243 0 0.2708403 -0.9626243 0 0.2708403 -0.9749281 0 0.2225204 -0.9749281 0 0.2225204 -0.9848077 0 0.1736484 -0.9848077 0 0.1736484 -0.9972038 0 0.07472982 -0.9922392 0 0.1243441 -0.9922392 0 0.1243441 -0.9972038 0 0.07472982 -0.9996892 0 0.02493077 -0.9996892 0 0.02493077 1 0 0 1 0 0 1 0 0 1 0 0 1 0 0 1 0 0 1 0 0 1 0 0 1 0 0 1 0 0 1 0 0 1 0 0 1 0 0 1 0 0 1 0 0 1 0 0 1 0 0 1 0 0 1 0 0 1 0 0 1 0 0 1 0 0 1 0 0 1 0 0 1 0 0 1 0 0 1 0 0 1 0 0 1 0 0 1 0 0 1 0 0 1 0 0 1 0 0 1 0 0 1 0 0 1 0 0 1 0 0 1 0 0 1 0 0 1 0 0 1 0 0 1 0 0 1 0 0 1 0 0 1 0 0 1 0 0 1 0 0 1 0 0 1 0 0 1 0 0 1 0 0 1 0 -0 1 0 0 1 0 -0 -0.9996891 0 -0.0249314 -0.9996891 -0 -0.0249314 -0.9972039 -0 -0.07472928 -0.9972039 0 -0.07472928 -0.9922392 -0 -0.1243431 -0.9922392 0 -0.1243431 -0.9848074 -0 -0.17365 -0.9848074 0 -0.17365 -0.9749282 -0 -0.2225198 -0.9749282 0 -0.2225198 -0.9626242 -0 -0.2708405 -0.9626242 0 -0.2708405 -0.9479274 -0 -0.3184865 -0.9479274 0 -0.3184865 -0.9308735 -0 -0.3653418 -0.9308735 0 -0.3653418 -0.9115057 -0 -0.4112875 -0.9115057 0 -0.4112875 -0.8898725 -0 -0.4562094 -0.8898725 0 -0.4562094 -0.8660248 0 -0.5000011 -0.8660248 -0 -0.5000011 -0.8400255 0 -0.5425469 -0.8400255 -0 -0.5425469 -0.8119388 0 -0.5837426 -0.8119388 -0 -0.5837426 -0.7818311 0 -0.6234903 -0.7818311 -0 -0.6234903 -0.7497818 0 -0.6616852 -0.7497818 -0 -0.6616852 -0.7158667 0 -0.6982369 -0.7158667 -0 -0.6982369 -0.6801732 0 -0.7330514 -0.6801732 -0 -0.7330514 -0.6427881 0 -0.766044 -0.6427881 -0 -0.766044 -0.6038045 0 -0.7971324 -0.6038045 -0 -0.7971324 -0.5633187 0 -0.8262397 -0.5633187 -0 -0.8262397 -0.5214347 0 -0.8532912 -0.5214347 -0 -0.8532912 -0.4782545 0 -0.8782213 -0.4782545 -0 -0.8782213 -0.4338848 -0 -0.9009684 -0.4338848 0 -0.9009684 -0.3884329 -0 -0.921477 -0.3884329 0 -0.921477 -0.3420202 -0 -0.9396926 -0.3420202 0 -0.9396926 -0.294755 -0 -0.9555728 -0.294755 0 -0.9555728 -0.2467586 -0 -0.9690769 -0.2467586 0 -0.9690769 -0.1981468 -0 -0.9801723 -0.1981468 0 -0.9801723 -0.1490414 -0 -0.988831 -0.1490414 0 -0.988831 -0.09956878 -0 -0.9950306 -0.09956878 0 -0.9950306 -0.0498437 -0 -0.9987571 -0.0498437 0 -0.9987571 0 0 -1 0 0 -1 0.0498437 0 -0.9987571 0.0498437 0 -0.9987571 0.09956878 0 -0.9950306 0.09956878 0 -0.9950306 0.1490414 0 -0.988831 0.1490414 0 -0.988831 0.1981468 0 -0.9801723 0.1981468 0 -0.9801723 0.2467586 0 -0.9690769 0.2467586 0 -0.9690769 0.294755 0 -0.9555728 0.294755 0 -0.9555728 0.3420202 0 -0.9396926 0.3420202 0 -0.9396926 0.3884329 0 -0.921477 0.3884329 0 -0.921477 0.4338848 0 -0.9009684 0.4338848 0 -0.9009684 0.4782545 0 -0.8782213 0.4782545 0 -0.8782213 0.5214347 0 -0.8532912 0.5214347 0 -0.8532912 0.5633187 0 -0.8262397 0.5633187 0 -0.8262397 0.6038045 0 -0.7971324 0.6038045 0 -0.7971324 0.6427881 0 -0.766044 0.6427881 0 -0.766044 0.6801732 0 -0.7330514 0.6801732 0 -0.7330514 0.7158667 0 -0.6982369 0.7158667 0 -0.6982369 0.7497818 0 -0.6616852 0.7497818 0 -0.6616852 0.7818311 0 -0.6234903 0.7818311 0 -0.6234903 0.8119388 0 -0.5837426 0.8119388 0 -0.5837426 0.8400255 0 -0.5425469 0.8400255 0 -0.5425469 0.8660248 0 -0.5000011 0.8660248 0 -0.5000011 0.8898725 0 -0.4562094 0.8898725 0 -0.4562094 0.9115057 0 -0.4112875 0.9115057 0 -0.4112875 0.9308735 0 -0.3653418 0.9308735 0 -0.3653418 0.9479274 0 -0.3184865 0.9479274 0 -0.3184865 0.9626242 0 -0.2708405 0.9626242 0 -0.2708405 0.9749282 0 -0.2225198 0.9749282 0 -0.2225198 0.9848074 0 -0.17365 0.9922392 0 -0.1243431 0.9848074 0 -0.17365 0.9922392 0 -0.1243431 0.9972039 0 -0.07472928 0.9972039 0 -0.07472928 0.9996891 0 -0.0249314 0.9996891 0 -0.0249314 0.9996891 0 0.0249314 0.9996891 0 0.0249314 0.9972039 0 0.07472928 0.9972039 0 0.07472928 0.9922392 0 0.1243431 0.9922392 0 0.1243431 0.9848074 0 0.17365 0.9848074 0 0.17365 0.9749282 0 0.2225198 0.9749282 0 0.2225198 0.9626242 0 0.2708405 0.9626242 0 0.2708405 0.9479274 0 0.3184865 0.9479274 0 0.3184865 0.9308735 0 0.3653418 0.9308735 0 0.3653418 0.911506 0 0.4112867 0.911506 0 0.4112867 0.889872 0 0.4562102 0.889872 0 0.4562102 0.8660248 0 0.5000011 0.8660248 0 0.5000011 0.8400261 0 0.542546 0.8119382 0 0.5837435 0.8400261 0 0.542546 0.8119382 0 0.5837435 0.7818318 0 0.6234893 0.7818318 0 0.6234893 0.749781 0 0.6616861 0.7158667 0 0.6982369 0.749781 0 0.6616861 0.7158667 0 0.6982369 0.6801732 0 0.7330514 0.6801732 0 0.7330514 0.6427869 0 0.766045 0.6427869 0 0.766045 0.6038045 0 0.7971324 0.6038045 0 0.7971324 0.56332 0 0.8262388 0.5214361 0 0.8532903 0.56332 0 0.8262388 0.478253 0 0.8782221 0.5214361 0 0.8532903 0.478253 0 0.8782221 0.4338848 0 0.9009684 0.4338848 0 0.9009684 0.3884345 0 0.9214763 0.3884345 0 0.9214763 0.3420202 0 0.9396926 0.3420202 0 0.9396926 0.294755 0 0.9555728 0.294755 0 0.9555728 0.2467568 0 0.9690774 0.2467568 0 0.9690774 0.1981468 0 0.9801723 0.1981468 0 0.9801723 0.1490414 0 0.988831 0.1490414 0 0.988831 0.09956878 0 0.9950306 0.09956878 0 0.9950306 0.04984561 0 0.9987569 0.04984561 0 0.9987569 0 0 1 -0.04984561 0 0.9987569 0 0 1 -0.04984561 0 0.9987569 -0.09956878 0 0.9950306 -0.09956878 0 0.9950306 -0.1490414 0 0.988831 -0.1490414 0 0.988831 -0.1981468 0 0.9801723 -0.1981468 0 0.9801723 -0.2467568 0 0.9690774 -0.2467568 0 0.9690774 -0.294755 0 0.9555728 -0.294755 0 0.9555728 -0.3420202 0 0.9396926 -0.3420202 0 0.9396926 -0.3884345 0 0.9214763 -0.3884345 0 0.9214763 -0.4338848 0 0.9009684 -0.4338848 0 0.9009684 -0.478253 0 0.8782221 -0.478253 0 0.8782221 -0.5214361 0 0.8532903 -0.5214361 0 0.8532903 -0.56332 0 0.8262388 -0.56332 0 0.8262388 -0.6038045 0 0.7971324 -0.6427869 0 0.766045 -0.6038045 0 0.7971324 -0.6427869 0 0.766045 -0.6801732 0 0.7330514 -0.6801732 0 0.7330514 -0.7158667 0 0.6982369 -0.7158667 0 0.6982369 -0.749781 0 0.6616861 -0.749781 0 0.6616861 -0.7818318 0 0.6234893 -0.7818318 0 0.6234893 -0.8119382 0 0.5837435 -0.8119382 0 0.5837435 -0.8400261 0 0.542546 -0.8400261 0 0.542546 -0.8660248 0 0.5000011 -0.8660248 0 0.5000011 -0.889872 0 0.4562102 -0.889872 0 0.4562102 -0.911506 0 0.4112867 -0.911506 0 0.4112867 -0.9308735 0 0.3653418 -0.9308735 0 0.3653418 -0.9479274 0 0.3184865 -0.9479274 0 0.3184865 -0.9626242 0 0.2708405 -0.9626242 0 0.2708405 -0.9749282 0 0.2225198 -0.9749282 0 0.2225198 -0.9848074 0 0.17365 -0.9848074 0 0.17365 -0.9922392 0 0.1243431 -0.9922392 0 0.1243431 -0.9972039 0 0.07472928 -0.9972039 0 0.07472928 -0.9996891 0 0.0249314 -0.9996891 0 0.0249314 -0.9996891 -0 -0.0249314 -0.9972039 -0 -0.07472928 -0.9996891 -0 -0.0249314 -0.9922392 -0 -0.1243431 -0.9972039 -0 -0.07472928 -0.9848074 -0 -0.17365 -0.9922392 -0 -0.1243431 -0.9749282 -0 -0.2225198 -0.9848074 -0 -0.17365 -0.9626242 -0 -0.2708405 -0.9749282 -0 -0.2225198 -0.9479274 -0 -0.3184865 -0.9626242 -0 -0.2708405 -0.9308735 -0 -0.3653418 -0.9479274 -0 -0.3184865 -0.9115057 -0 -0.4112875 -0.9308735 -0 -0.3653418 -0.8898725 -0 -0.4562094 -0.9115057 -0 -0.4112875 -0.8660248 -0 -0.5000011 -0.8898725 -0 -0.4562094 -0.8660248 -0 -0.5000011 -0.8400255 -0 -0.5425469 -0.8400255 -0 -0.5425469 -0.8119388 -0 -0.5837426 -0.8119388 -0 -0.5837426 -0.7818311 -0 -0.6234903 -0.7818311 -0 -0.6234903 -0.7497818 -0 -0.6616852 -0.7497818 -0 -0.6616852 -0.7158667 -0 -0.6982369 -0.7158667 -0 -0.6982369 -0.6801732 -0 -0.7330514 -0.6801732 -0 -0.7330514 -0.6427881 -0 -0.766044 -0.6427881 -0 -0.766044 -0.6038045 -0 -0.7971324 -0.5633187 -0 -0.8262397 -0.6038045 -0 -0.7971324 -0.5633187 -0 -0.8262397 -0.5214347 -0 -0.8532912 -0.4782545 -0 -0.8782213 -0.5214347 -0 -0.8532912 -0.4338848 -0 -0.9009684 -0.4782545 -0 -0.8782213 -0.3884329 -0 -0.921477 -0.4338848 -0 -0.9009684 -0.3420202 -0 -0.9396926 -0.3884329 -0 -0.921477 -0.294755 -0 -0.9555728 -0.3420202 -0 -0.9396926 -0.2467586 -0 -0.9690769 -0.294755 -0 -0.9555728 -0.1981468 -0 -0.9801723 -0.2467586 -0 -0.9690769 -0.1490414 -0 -0.988831 -0.1981468 -0 -0.9801723 -0.09956878 -0 -0.9950306 -0.1490414 -0 -0.988831 -0.0498437 -0 -0.9987571 -0.09956878 -0 -0.9950306 0 -0 -1 -0.0498437 -0 -0.9987571 0.0498437 0 -0.9987571 0 0 -1 0.09956878 0 -0.9950306 0.0498437 0 -0.9987571 0.1490414 0 -0.988831 0.09956878 0 -0.9950306 0.1981468 0 -0.9801723 0.1490414 0 -0.988831 0.1981468 0 -0.9801723 0.2467586 0 -0.9690769 0.2467586 0 -0.9690769 0.294755 0 -0.9555728 0.294755 0 -0.9555728 0.3420202 0 -0.9396926 0.3884329 0 -0.921477 0.3420202 0 -0.9396926 0.4338848 0 -0.9009684 0.3884329 0 -0.921477 0.4782545 0 -0.8782213 0.4338848 0 -0.9009684 0.5214347 0 -0.8532912 0.4782545 0 -0.8782213 0.5214347 0 -0.8532912 0.6038045 0 -0.7971324 0.5633187 0 -0.8262397 0.5633187 0 -0.8262397 0.6038045 0 -0.7971324 0.6801732 0 -0.7330514 0.6427881 0 -0.766044 0.6427881 0 -0.766044 0.6801732 0 -0.7330514 0.7497818 0 -0.6616852 0.7158667 0 -0.6982369 0.7158667 0 -0.6982369 0.7497818 0 -0.6616852 0.8119388 0 -0.5837426 0.7818311 0 -0.6234903 0.7818311 0 -0.6234903 0.8400255 0 -0.5425469 0.8119388 0 -0.5837426 0.8400255 0 -0.5425469 0.8660248 0 -0.5000011 0.8660248 0 -0.5000011 0.8898725 0 -0.4562094 0.9115057 0 -0.4112875 0.8898725 0 -0.4562094 0.9115057 0 -0.4112875 0.9308735 0 -0.3653418 0.9479274 0 -0.3184865 0.9308735 0 -0.3653418 0.9479274 0 -0.3184865 0.9626242 0 -0.2708405 0.9626242 0 -0.2708405 0.9749282 0 -0.2225198 0.9848074 0 -0.17365 0.9749282 0 -0.2225198 0.9922392 0 -0.1243431 0.9848074 0 -0.17365 0.9922392 0 -0.1243431 0.9972039 0 -0.07472928 0.9996891 0 -0.0249314 0.9972039 0 -0.07472928 0.9996891 0 -0.0249314 0.9996891 0 0.0249314 0.9996891 0 0.0249314 0.9972039 0 0.07472928 0.9972039 0 0.07472928 0.9922392 0 0.1243431 0.9922392 0 0.1243431 0.9848074 0 0.17365 0.9749282 0 0.2225198 0.9848074 0 0.17365 0.9749282 0 0.2225198 0.9626242 0 0.2708405 0.9626242 0 0.2708405 0.9479274 0 0.3184865 0.9308735 0 0.3653418 0.9479274 0 0.3184865 0.9308735 0 0.3653418 0.911506 0 0.4112867 0.911506 0 0.4112867 0.889872 0 0.4562102 0.8660248 0 0.5000011 0.889872 0 0.4562102 0.8660248 0 0.5000011 0.8400261 0 0.542546 0.8400261 0 0.542546 0.8119382 0 0.5837435 0.7818318 0 0.6234893 0.8119382 0 0.5837435 0.7818318 0 0.6234893 0.749781 0 0.6616861 0.749781 0 0.6616861 0.7158667 0 0.6982369 0.6801732 0 0.7330514 0.7158667 0 0.6982369 0.6801732 0 0.7330514 0.6038045 0 0.7971324 0.6427869 0 0.766045 0.6427869 0 0.766045 0.6038045 0 0.7971324 0.56332 0 0.8262388 0.56332 0 0.8262388 0.5214361 0 0.8532903 0.5214361 0 0.8532903 0.478253 0 0.8782221 0.478253 0 0.8782221 0.4338848 0 0.9009684 0.4338848 0 0.9009684 0.3884345 0 0.9214763 0.3420202 0 0.9396926 0.3884345 0 0.9214763 0.3420202 0 0.9396926 0.294755 0 0.9555728 0.2467568 0 0.9690774 0.294755 0 0.9555728 0.2467568 0 0.9690774 0.1981468 0 0.9801723 0.1981468 0 0.9801723 0.1490414 0 0.988831 0.1490414 0 0.988831 0.09956878 0 0.9950306 0.04984561 0 0.9987569 0.09956878 0 0.9950306 0.04984561 0 0.9987569 0 0 1 0 0 1 -0.04984561 0 0.9987569 -0.09956878 0 0.9950306 -0.04984561 0 0.9987569 -0.09956878 0 0.9950306 -0.1490414 0 0.988831 -0.1981468 0 0.9801723 -0.1490414 0 0.988831 -0.1981468 0 0.9801723 -0.2467568 0 0.9690774 -0.2467568 0 0.9690774 -0.294755 0 0.9555728 -0.294755 0 0.9555728 -0.3884345 0 0.9214763 -0.3420202 0 0.9396926 -0.3420202 0 0.9396926 -0.3884345 0 0.9214763 -0.478253 0 0.8782221 -0.4338848 0 0.9009684 -0.4338848 0 0.9009684 -0.478253 0 0.8782221 -0.56332 0 0.8262388 -0.5214361 0 0.8532903 -0.5214361 0 0.8532903 -0.56332 0 0.8262388 -0.6427869 0 0.766045 -0.6038045 0 0.7971324 -0.6038045 0 0.7971324 -0.6801732 0 0.7330514 -0.6427869 0 0.766045 -0.6801732 0 0.7330514 -0.7158667 0 0.6982369 -0.7158667 0 0.6982369 -0.749781 0 0.6616861 -0.749781 0 0.6616861 -0.7818318 0 0.6234893 -0.8119382 0 0.5837435 -0.7818318 0 0.6234893 -0.8119382 0 0.5837435 -0.8400261 0 0.542546 -0.8400261 0 0.542546 -0.8660248 0 0.5000011 -0.889872 0 0.4562102 -0.8660248 0 0.5000011 -0.889872 0 0.4562102 -0.911506 0 0.4112867 -0.911506 0 0.4112867 -0.9308735 0 0.3653418 -0.9308735 0 0.3653418 -0.9626242 0 0.2708405 -0.9479274 0 0.3184865 -0.9479274 0 0.3184865 -0.9749282 0 0.2225198 -0.9626242 0 0.2708405 -0.9848074 0 0.17365 -0.9749282 0 0.2225198 -0.9848074 0 0.17365 -0.9972039 0 0.07472928 -0.9922392 0 0.1243431 -0.9922392 0 0.1243431 -0.9972039 0 0.07472928 -0.9996891 0 0.0249314 -0.9996891 0 0.0249314</float_array>
          <technique_common>
            <accessor count="1732" source="#cubenormals-array0-array" stride="3">
              <param type="float" name="X"/>
              <param type="float" name="Y"/>
              <param type="float" name="Z"/>
            </accessor>
          </technique_common>
        </source>
        <vertices id="cubeverts-array0-vertices">
          <input semantic="POSITION" source="#cubeverts-array0"/>
        </vertices>
        <triangles count="1732" material="ref_Body">
          <input offset="0" semantic="VERTEX" source="#cubeverts-array0-vertices"/>
          <input offset="1" semantic="NORMAL" source="#cubenormals-array0"/>
          <p>0 0 1 0 2 0 3 1 4 1 1 1 5 2 4 2 3 2 6 3 4 3 5 3 7 4 4 4 6 4 8 5 4 5 7 5 9 6 4 6 8 6 10 7 4 7 9 7 11 8 4 8 10 8 12 9 4 9 11 9 13 10 4 10 12 10 14 11 4 11 13 11 15 12 4 12 14 12 16 13 4 13 15 13 17 14 4 14 16 14 18 15 4 15 17 15 19 16 4 16 18 16 20 17 4 17 19 17 21 18 4 18 20 18 22 19 4 19 21 19 23 20 4 20 22 20 24 21 4 21 23 21 25 22 4 22 24 22 26 23 4 23 25 23 27 24 4 24 26 24 1 25 4 25 2 25 28 26 29 26 30 26 31 27 32 27 33 27 34 28 32 28 31 28 35 29 32 29 34 29 36 30 32 30 35 30 37 31 32 31 36 31 38 32 32 32 37 32 39 33 32 33 38 33 40 34 32 34 39 34 41 35 32 35 40 35 42 36 32 36 41 36 43 37 32 37 42 37 44 38 32 38 43 38 45 39 32 39 44 39 46 40 32 40 45 40 47 41 32 41 46 41 48 42 32 42 47 42 49 43 32 43 48 43 50 44 32 44 49 44 51 45 32 45 50 45 52 46 32 46 51 46 53 47 32 47 52 47 54 48 32 48 53 48 55 49 32 49 54 49 29 50 32 50 55 50 33 51 32 51 27 51 28 52 32 52 29 52 27 53 32 53 4 53 56 54 57 54 58 54 59 55 57 55 56 55 60 56 61 56 56 56 62 57 61 57 60 57 56 58 61 58 59 58 58 59 63 59 64 59 57 60 63 60 58 60 62 61 65 61 61 61 64 62 66 62 67 62 63 63 66 63 64 63 68 64 69 64 62 64 70 65 69 65 68 65 62 66 69 66 65 66 67 67 71 67 72 67 66 68 71 68 67 68 70 69 73 69 69 69 74 70 73 70 70 70 72 71 75 71 76 71 71 72 75 72 72 72 74 73 77 73 73 73 78 74 79 74 80 74 76 75 79 75 78 75 75 76 79 76 76 76 81 77 82 77 74 77 83 78 82 78 81 78 74 79 82 79 77 79 79 80 84 80 80 80 83 81 85 81 82 81 80 82 86 82 87 82 84 83 86 83 80 83 88 84 89 84 83 84 90 85 89 85 88 85 83 86 89 86 85 86 87 87 91 87 92 87 86 88 91 88 87 88 90 89 93 89 89 89 92 90 94 90 95 90 91 91 94 91 92 91 90 92 96 92 93 92 97 93 96 93 90 93 98 94 96 94 97 94 95 95 99 95 100 95 94 96 99 96 95 96 98 97 101 97 96 97 102 98 101 98 98 98 100 99 103 99 104 99 99 100 103 100 100 100 102 101 105 101 101 101 104 102 106 102 107 102 103 103 106 103 104 103 102 104 108 104 105 104 109 105 108 105 102 105 110 106 108 106 109 106 107 107 111 107 112 107 106 108 111 108 107 108 110 109 113 109 108 109 114 110 115 110 0 110 112 111 115 111 114 111 111 112 115 112 112 112 110 113 116 113 113 113 117 114 116 114 110 114 118 115 116 115 117 115 115 116 119 116 0 116 118 117 120 117 116 117 121 118 120 118 118 118 119 119 122 119 0 119 121 120 123 120 120 120 122 121 124 121 0 121 125 122 126 122 121 122 127 123 126 123 125 123 121 124 126 124 123 124 124 125 128 125 0 125 127 126 129 126 126 126 128 127 130 127 0 127 131 128 132 128 127 128 127 129 132 129 129 129 130 130 133 130 0 130 134 131 135 131 131 131 131 132 135 132 132 132 133 133 136 133 0 133 137 134 138 134 134 134 134 135 138 135 135 135 136 136 139 136 0 136 137 137 140 137 138 137 141 138 140 138 137 138 139 139 142 139 0 139 143 140 144 140 141 140 141 141 144 141 140 141 142 142 145 142 0 142 143 143 146 143 144 143 147 144 146 144 143 144 0 145 148 145 1 145 145 146 148 146 0 146 149 147 150 147 147 147 147 148 150 148 146 148 148 149 151 149 1 149 152 150 153 150 149 150 154 151 153 151 152 151 149 152 153 152 150 152 151 153 155 153 1 153 156 154 157 154 154 154 154 155 157 155 153 155 155 156 158 156 1 156 156 157 159 157 157 157 158 158 160 158 1 158 156 159 161 159 159 159 162 160 161 160 156 160 162 161 163 161 161 161 160 162 164 162 1 162 163 163 165 163 161 163 164 164 166 164 1 164 166 165 167 165 1 165 167 166 168 166 1 166 163 167 169 167 165 167 165 168 169 168 170 168 168 169 171 169 1 169 171 170 172 170 1 170 172 171 173 171 1 171 169 172 174 172 170 172 170 173 174 173 175 173 173 174 176 174 1 174 176 175 177 175 1 175 177 176 178 176 1 176 174 177 179 177 175 177 175 178 179 178 180 178 180 179 179 179 181 179 178 180 182 180 1 180 182 181 183 181 1 181 183 182 184 182 1 182 179 183 185 183 181 183 184 184 186 184 1 184 186 185 187 185 1 185 187 186 188 186 1 186 188 187 189 187 1 187 185 188 190 188 181 188 181 189 190 189 191 189 189 190 192 190 1 190 190 191 193 191 191 191 191 192 193 192 194 192 194 193 195 193 196 193 193 194 195 194 194 194 195 195 197 195 196 195 196 196 197 196 198 196 197 197 199 197 198 197 198 198 199 198 200 198 199 199 201 199 200 199 200 200 201 200 202 200 201 201 203 201 202 201 202 202 203 202 204 202 204 203 203 203 205 203 203 204 206 204 205 204 206 205 207 205 205 205 205 206 207 206 208 206 207 207 209 207 208 207 208 208 209 208 210 208 209 209 211 209 210 209 210 210 211 210 212 210 212 211 211 211 213 211 211 212 214 212 213 212 213 213 214 213 215 213 215 214 214 214 216 214 216 215 214 215 217 215 217 216 214 216 218 216 218 217 214 217 219 217 219 218 214 218 220 218 220 219 214 219 221 219 221 220 214 220 222 220 222 221 214 221 223 221 223 222 214 222 224 222 214 223 225 223 224 223 224 224 225 224 226 224 226 225 225 225 227 225 227 226 225 226 228 226 228 227 225 227 229 227 229 228 225 228 230 228 230 229 225 229 231 229 231 230 225 230 232 230 232 231 225 231 233 231 233 232 225 232 234 232 192 233 225 233 1 233 234 234 225 234 235 234 235 235 225 235 236 235 236 236 225 236 237 236 237 237 225 237 238 237 238 238 225 238 239 238 239 239 225 239 240 239 240 240 225 240 241 240 241 241 225 241 242 241 242 242 225 242 243 242 243 243 225 243 244 243 244 244 225 244 245 244 245 245 225 245 192 245 3 246 225 246 246 246 3 247 1 247 225 247 5 248 246 248 247 248 5 249 3 249 246 249 6 250 247 250 248 250 6 251 5 251 247 251 7 252 248 252 249 252 7 253 6 253 248 253 8 254 249 254 250 254 8 255 7 255 249 255 9 256 250 256 251 256 9 257 8 257 250 257 10 258 251 258 252 258 10 259 9 259 251 259 11 260 252 260 253 260 11 261 10 261 252 261 12 262 253 262 254 262 12 263 11 263 253 263 13 264 254 264 255 264 13 265 12 265 254 265 14 266 255 266 256 266 14 267 13 267 255 267 15 268 14 268 256 268 15 269 256 269 257 269 16 270 15 270 257 270 16 271 257 271 258 271 17 272 16 272 258 272 17 273 258 273 259 273 18 274 259 274 260 274 18 275 17 275 259 275 19 276 18 276 260 276 19 277 260 277 261 277 20 278 261 278 262 278 20 279 19 279 261 279 21 280 262 280 263 280 21 281 20 281 262 281 22 282 263 282 264 282 22 283 21 283 263 283 23 284 264 284 265 284 23 285 22 285 264 285 24 286 265 286 266 286 24 287 23 287 265 287 25 288 266 288 267 288 25 289 24 289 266 289 26 290 267 290 268 290 26 291 25 291 267 291 27 292 268 292 269 292 27 293 26 293 268 293 214 294 211 294 270 294 270 295 211 295 271 295 211 296 209 296 271 296 271 297 209 297 272 297 209 298 207 298 272 298 272 299 207 299 273 299 207 300 206 300 273 300 273 301 206 301 274 301 206 302 203 302 274 302 274 303 203 303 275 303 203 304 201 304 275 304 275 305 201 305 276 305 201 306 199 306 276 306 276 307 199 307 277 307 199 308 197 308 277 308 277 309 197 309 278 309 197 310 195 310 278 310 278 311 195 311 279 311 279 312 193 312 280 312 195 313 193 313 279 313 280 314 190 314 281 314 193 315 190 315 280 315 281 316 185 316 282 316 190 317 185 317 281 317 282 318 179 318 283 318 185 319 179 319 282 319 283 320 174 320 284 320 179 321 174 321 283 321 284 322 169 322 285 322 174 323 169 323 284 323 285 324 163 324 286 324 169 325 163 325 285 325 286 326 162 326 287 326 163 327 162 327 286 327 162 328 156 328 287 328 287 329 156 329 288 329 156 330 154 330 288 330 288 331 154 331 289 331 154 332 152 332 289 332 289 333 152 333 290 333 152 334 149 334 290 334 290 335 149 335 291 335 149 336 147 336 291 336 291 337 147 337 292 337 147 338 143 338 292 338 292 339 143 339 293 339 143 340 141 340 293 340 293 341 141 341 294 341 141 342 137 342 294 342 294 343 137 343 295 343 137 344 134 344 295 344 295 345 134 345 296 345 134 346 131 346 296 346 296 347 131 347 297 347 131 348 127 348 297 348 297 349 127 349 298 349 127 350 125 350 298 350 298 351 125 351 299 351 125 352 121 352 299 352 299 353 121 353 300 353 121 354 118 354 300 354 300 355 118 355 301 355 118 356 117 356 301 356 301 357 117 357 302 357 117 358 110 358 302 358 302 359 110 359 303 359 110 360 109 360 303 360 303 361 109 361 304 361 109 362 102 362 304 362 304 363 102 363 305 363 102 364 98 364 305 364 305 365 98 365 306 365 306 366 97 366 307 366 98 367 97 367 306 367 307 368 90 368 308 368 97 369 90 369 307 369 308 370 88 370 309 370 90 371 88 371 308 371 309 372 83 372 310 372 88 373 83 373 309 373 310 374 81 374 311 374 83 375 81 375 310 375 311 376 74 376 312 376 81 377 74 377 311 377 74 378 70 378 312 378 312 379 70 379 313 379 70 380 68 380 313 380 313 381 68 381 314 381 314 382 62 382 315 382 68 383 62 383 314 383 315 384 60 384 316 384 62 385 60 385 315 385 316 386 56 386 317 386 60 387 56 387 316 387 317 388 58 388 318 388 56 389 58 389 317 389 318 390 64 390 319 390 58 391 64 391 318 391 319 392 67 392 320 392 64 393 67 393 319 393 320 394 72 394 321 394 67 395 72 395 320 395 321 396 76 396 322 396 322 397 76 397 323 397 72 398 76 398 321 398 76 399 78 399 323 399 323 400 80 400 324 400 78 401 80 401 323 401 324 402 87 402 325 402 325 403 87 403 326 403 80 404 87 404 324 404 87 405 92 405 326 405 326 406 95 406 327 406 92 407 95 407 326 407 327 408 100 408 328 408 95 409 100 409 327 409 328 410 104 410 329 410 100 411 104 411 328 411 329 412 107 412 330 412 104 413 107 413 329 413 330 414 112 414 331 414 107 415 112 415 330 415 331 416 114 416 332 416 112 417 114 417 331 417 332 418 0 418 2 418 114 419 0 419 332 419 269 420 333 420 27 420 27 421 333 421 33 421 334 422 335 422 4 422 4 423 336 423 334 423 4 424 337 424 2 424 335 425 337 425 4 425 4 426 338 426 336 426 337 427 339 427 2 427 4 428 340 428 338 428 339 429 341 429 2 429 4 430 342 430 340 430 341 431 343 431 2 431 4 432 344 432 342 432 343 433 345 433 2 433 4 434 346 434 344 434 345 435 347 435 2 435 4 436 348 436 346 436 347 437 349 437 2 437 4 438 350 438 348 438 349 439 351 439 2 439 4 440 352 440 350 440 351 441 353 441 2 441 4 442 354 442 352 442 353 443 355 443 2 443 4 444 356 444 354 444 355 445 357 445 2 445 4 446 358 446 356 446 357 447 359 447 2 447 4 448 360 448 358 448 359 449 361 449 2 449 4 450 362 450 360 450 361 451 363 451 2 451 4 452 364 452 362 452 363 453 365 453 2 453 366 454 367 454 4 454 4 455 367 455 364 455 2 456 368 456 332 456 365 457 368 457 2 457 366 458 369 458 367 458 332 459 370 459 331 459 368 460 370 460 332 460 366 461 371 461 369 461 331 462 372 462 330 462 370 463 372 463 331 463 366 464 373 464 371 464 330 465 374 465 329 465 372 466 374 466 330 466 366 467 375 467 373 467 329 468 376 468 328 468 374 469 376 469 329 469 366 470 377 470 375 470 328 471 378 471 327 471 376 472 378 472 328 472 366 473 379 473 377 473 378 474 380 474 327 474 327 475 380 475 326 475 366 476 381 476 379 476 380 477 382 477 326 477 325 478 382 478 324 478 326 479 382 479 325 479 366 480 383 480 381 480 382 481 384 481 324 481 366 482 385 482 383 482 384 483 386 483 324 483 324 484 386 484 323 484 366 485 387 485 385 485 386 486 388 486 323 486 323 487 388 487 322 487 366 488 389 488 387 488 388 489 390 489 322 489 322 490 390 490 321 490 366 491 391 491 389 491 390 492 392 492 321 492 321 493 392 493 320 493 366 494 393 494 391 494 392 495 394 495 320 495 320 496 394 496 319 496 366 497 395 497 393 497 319 498 396 498 318 498 394 499 396 499 319 499 366 500 397 500 395 500 366 501 398 501 397 501 399 502 317 502 396 502 396 503 317 503 318 503 399 504 400 504 317 504 366 505 401 505 398 505 402 506 316 506 400 506 400 507 316 507 317 507 403 508 315 508 402 508 402 509 315 509 316 509 403 510 314 510 315 510 404 511 313 511 403 511 403 512 313 512 314 512 405 513 312 513 406 513 406 514 312 514 404 514 404 515 312 515 313 515 405 516 311 516 312 516 407 517 310 517 405 517 405 518 310 518 311 518 408 519 309 519 407 519 407 520 309 520 310 520 409 521 308 521 410 521 410 522 308 522 408 522 408 523 308 523 309 523 409 524 307 524 308 524 411 525 306 525 409 525 409 526 306 526 307 526 412 527 305 527 413 527 413 528 305 528 411 528 411 529 305 529 306 529 412 530 304 530 305 530 412 531 303 531 304 531 414 532 303 532 412 532 414 533 302 533 303 533 415 534 302 534 414 534 366 535 270 535 401 535 416 536 270 536 417 536 401 537 270 537 418 537 418 538 270 538 419 538 419 539 270 539 420 539 420 540 270 540 421 540 421 541 270 541 422 541 422 542 270 542 423 542 423 543 270 543 424 543 424 544 270 544 425 544 425 545 270 545 426 545 426 546 270 546 427 546 427 547 270 547 428 547 428 548 270 548 429 548 429 549 270 549 430 549 430 550 270 550 416 550 415 551 301 551 302 551 431 552 301 552 415 552 270 553 271 553 417 553 417 554 271 554 432 554 431 555 300 555 301 555 433 556 300 556 431 556 271 557 272 557 432 557 433 558 299 558 300 558 434 559 299 559 433 559 272 560 273 560 432 560 432 561 273 561 435 561 434 562 298 562 299 562 436 563 298 563 434 563 273 564 274 564 435 564 435 565 274 565 437 565 436 566 297 566 298 566 438 567 297 567 436 567 274 568 275 568 437 568 437 569 275 569 439 569 438 570 296 570 297 570 440 571 296 571 438 571 439 572 276 572 441 572 441 573 276 573 442 573 275 574 276 574 439 574 440 575 295 575 296 575 443 576 295 576 440 576 276 577 277 577 442 577 443 578 294 578 295 578 444 579 294 579 445 579 445 580 294 580 443 580 277 581 278 581 442 581 442 582 278 582 446 582 444 583 293 583 294 583 278 584 279 584 446 584 446 585 279 585 447 585 448 586 292 586 449 586 444 587 292 587 293 587 449 588 292 588 444 588 279 589 280 589 447 589 447 590 280 590 450 590 450 591 280 591 451 591 448 592 291 592 292 592 280 593 281 593 451 593 448 594 290 594 291 594 452 595 290 595 448 595 281 596 282 596 451 596 451 597 282 597 453 597 452 598 289 598 290 598 454 599 289 599 455 599 455 600 289 600 452 600 282 601 283 601 453 601 453 602 283 602 456 602 456 603 283 603 457 603 454 604 288 604 289 604 283 605 284 605 457 605 454 606 287 606 288 606 458 607 287 607 454 607 284 608 285 608 457 608 457 609 285 609 459 609 458 610 286 610 287 610 285 611 286 611 459 611 459 612 286 612 460 612 460 613 286 613 458 613 31 614 333 614 461 614 31 615 33 615 333 615 34 616 461 616 462 616 34 617 31 617 461 617 35 618 462 618 463 618 35 619 34 619 462 619 36 620 463 620 464 620 36 621 35 621 463 621 37 622 464 622 465 622 37 623 36 623 464 623 38 624 465 624 466 624 38 625 37 625 465 625 39 626 466 626 467 626 39 627 38 627 466 627 40 628 467 628 468 628 40 629 39 629 467 629 41 630 468 630 469 630 41 631 40 631 468 631 42 632 469 632 470 632 42 633 41 633 469 633 43 634 470 634 471 634 43 635 42 635 470 635 44 636 43 636 471 636 44 637 471 637 472 637 45 638 44 638 472 638 45 639 472 639 473 639 46 640 45 640 473 640 46 641 473 641 474 641 47 642 474 642 475 642 47 643 46 643 474 643 48 644 47 644 475 644 48 645 475 645 476 645 49 646 476 646 477 646 49 647 477 647 478 647 49 648 48 648 476 648 50 649 478 649 479 649 50 650 49 650 478 650 51 651 50 651 479 651 52 652 479 652 480 652 52 653 51 653 479 653 53 654 480 654 481 654 53 655 52 655 480 655 54 656 481 656 482 656 54 657 53 657 481 657 55 658 482 658 483 658 55 659 54 659 482 659 29 660 483 660 484 660 29 661 55 661 483 661 32 662 485 662 4 662 4 663 485 663 366 663 486 664 487 664 29 664 29 665 488 665 486 665 487 666 489 666 29 666 29 667 490 667 488 667 489 668 491 668 29 668 29 669 492 669 490 669 491 670 493 670 29 670 29 671 494 671 492 671 493 672 495 672 29 672 29 673 496 673 494 673 29 674 497 674 30 674 495 675 497 675 29 675 29 676 498 676 496 676 497 677 499 677 30 677 29 678 500 678 498 678 499 679 501 679 30 679 29 680 502 680 500 680 501 681 503 681 30 681 29 682 504 682 502 682 503 683 505 683 30 683 29 684 506 684 504 684 505 685 507 685 30 685 29 686 508 686 506 686 507 687 509 687 30 687 29 688 510 688 508 688 509 689 511 689 30 689 29 690 512 690 510 690 511 691 513 691 30 691 29 692 514 692 512 692 513 693 515 693 30 693 29 694 516 694 514 694 30 695 517 695 518 695 515 696 517 696 30 696 518 697 519 697 520 697 517 698 519 698 518 698 520 699 521 699 522 699 519 700 521 700 520 700 521 701 523 701 522 701 522 702 524 702 525 702 525 703 524 703 526 703 523 704 524 704 522 704 524 705 527 705 526 705 526 706 528 706 529 706 529 707 528 707 530 707 527 708 528 708 526 708 528 709 531 709 530 709 530 710 532 710 533 710 531 711 532 711 530 711 532 712 534 712 533 712 533 713 534 713 535 713 535 714 536 714 537 714 537 715 536 715 538 715 534 716 536 716 535 716 536 717 539 717 538 717 539 718 540 718 538 718 538 719 540 719 541 719 541 720 540 720 542 720 540 721 543 721 542 721 542 722 544 722 545 722 543 723 544 723 542 723 545 724 546 724 547 724 544 725 546 725 545 725 546 726 548 726 547 726 548 727 549 727 547 727 550 728 551 728 548 728 548 729 551 729 549 729 552 730 553 730 550 730 550 731 553 731 551 731 554 732 555 732 552 732 552 733 555 733 553 733 556 734 484 734 557 734 558 735 484 735 556 735 559 736 484 736 558 736 29 737 484 737 516 737 560 738 484 738 559 738 561 739 484 739 560 739 562 740 484 740 561 740 563 741 484 741 562 741 564 742 484 742 563 742 565 743 484 743 564 743 566 744 484 744 565 744 567 745 484 745 566 745 568 746 484 746 567 746 569 747 484 747 568 747 570 748 484 748 569 748 571 749 484 749 570 749 572 750 484 750 571 750 573 751 484 751 572 751 574 752 484 752 573 752 575 753 484 753 574 753 576 754 484 754 575 754 577 755 484 755 576 755 516 756 484 756 577 756 578 757 579 757 554 757 554 758 579 758 555 758 580 759 581 759 578 759 578 760 581 760 579 760 582 761 583 761 580 761 580 762 583 762 581 762 582 763 584 763 583 763 585 764 584 764 582 764 586 765 587 765 585 765 585 766 587 766 584 766 588 767 589 767 586 767 586 768 589 768 587 768 590 769 591 769 588 769 588 770 591 770 589 770 592 771 593 771 590 771 590 772 593 772 591 772 594 773 595 773 592 773 592 774 595 774 593 774 594 775 596 775 595 775 597 776 596 776 594 776 598 777 599 777 597 777 600 778 599 778 598 778 597 779 599 779 596 779 600 780 601 780 599 780 484 781 602 781 557 781 603 782 602 782 604 782 605 783 602 783 603 783 606 784 602 784 605 784 607 785 602 785 606 785 608 786 602 786 607 786 609 787 602 787 608 787 610 788 602 788 609 788 611 789 602 789 610 789 612 790 602 790 611 790 557 791 602 791 612 791 600 792 613 792 601 792 614 793 613 793 600 793 602 794 615 794 604 794 604 795 615 795 616 795 614 796 617 796 613 796 618 797 617 797 614 797 615 798 619 798 616 798 616 799 619 799 620 799 621 800 622 800 618 800 623 801 622 801 621 801 618 802 622 802 617 802 619 803 624 803 620 803 620 804 624 804 625 804 623 805 626 805 622 805 624 806 627 806 625 806 628 807 627 807 629 807 625 808 627 808 628 808 623 809 630 809 626 809 631 810 630 810 623 810 632 811 630 811 631 811 627 812 633 812 629 812 629 813 633 813 634 813 632 814 635 814 630 814 636 815 635 815 632 815 633 816 637 816 634 816 636 817 638 817 635 817 639 818 638 818 636 818 637 819 640 819 634 819 634 820 640 820 641 820 639 821 642 821 638 821 640 822 643 822 641 822 644 823 643 823 645 823 641 824 643 824 644 824 639 825 646 825 642 825 647 826 646 826 639 826 648 827 646 827 647 827 643 828 649 828 645 828 645 829 649 829 650 829 648 830 651 830 646 830 649 831 652 831 650 831 650 832 652 832 653 832 648 833 654 833 651 833 655 834 654 834 648 834 656 835 654 835 655 835 652 836 657 836 653 836 656 837 658 837 654 837 659 838 658 838 656 838 657 839 660 839 653 839 653 840 660 840 661 840 659 841 662 841 658 841 660 842 663 842 661 842 661 843 663 843 664 843 659 844 665 844 662 844 666 845 665 845 659 845 663 846 667 846 664 846 664 847 667 847 668 847 666 848 669 848 665 848 670 849 669 849 666 849 667 850 671 850 668 850 668 851 671 851 672 851 670 852 673 852 669 852 671 853 673 853 672 853 674 854 673 854 670 854 672 855 673 855 674 855 675 856 676 856 32 856 677 857 32 857 676 857 678 858 32 858 28 858 678 859 675 859 32 859 679 860 32 860 677 860 680 861 678 861 28 861 681 862 32 862 679 862 682 863 680 863 28 863 683 864 32 864 681 864 684 865 682 865 28 865 685 866 32 866 683 866 686 867 684 867 28 867 687 868 32 868 685 868 688 869 686 869 28 869 689 870 32 870 687 870 690 871 688 871 28 871 691 872 32 872 689 872 692 873 690 873 28 873 693 874 32 874 691 874 694 875 692 875 28 875 695 876 32 876 693 876 696 877 694 877 28 877 697 878 32 878 695 878 698 879 696 879 28 879 699 880 32 880 697 880 700 881 698 881 28 881 701 882 32 882 699 882 702 883 700 883 28 883 703 884 32 884 701 884 704 885 702 885 28 885 705 886 32 886 703 886 706 887 28 887 707 887 706 888 704 888 28 888 485 889 32 889 705 889 708 890 485 890 705 890 709 891 706 891 707 891 709 892 707 892 710 892 711 893 485 893 708 893 712 894 709 894 710 894 713 895 485 895 711 895 714 896 710 896 715 896 714 897 712 897 710 897 716 898 485 898 713 898 717 899 714 899 715 899 717 900 715 900 718 900 719 901 485 901 716 901 720 902 718 902 721 902 720 903 717 903 718 903 722 904 485 904 719 904 723 905 720 905 721 905 723 906 721 906 724 906 725 907 485 907 722 907 726 908 723 908 724 908 726 909 724 909 727 909 728 910 485 910 725 910 729 911 726 911 727 911 729 912 727 912 730 912 731 913 485 913 728 913 732 914 729 914 730 914 732 915 730 915 733 915 734 916 485 916 731 916 735 917 732 917 733 917 735 918 733 918 736 918 737 919 485 919 734 919 738 920 735 920 736 920 738 921 736 921 739 921 740 922 485 922 737 922 741 923 738 923 739 923 741 924 739 924 742 924 743 925 485 925 740 925 744 926 741 926 742 926 744 927 742 927 745 927 746 928 485 928 743 928 747 929 744 929 745 929 747 930 745 930 748 930 749 931 485 931 746 931 750 932 748 932 751 932 750 933 747 933 748 933 752 934 485 934 749 934 753 935 485 935 752 935 754 936 755 936 750 936 754 937 750 937 751 937 756 938 485 938 753 938 757 939 758 939 759 939 757 940 759 940 755 940 757 941 755 941 754 941 760 942 758 942 757 942 761 943 762 943 763 943 761 944 763 944 758 944 761 945 758 945 760 945 764 946 762 946 761 946 765 947 766 947 762 947 765 948 762 948 764 948 767 949 766 949 765 949 767 950 768 950 769 950 767 951 769 951 766 951 770 952 768 952 767 952 771 953 772 953 773 953 771 954 773 954 768 954 771 955 768 955 770 955 774 956 772 956 771 956 775 957 776 957 772 957 775 958 772 958 774 958 777 959 778 959 776 959 777 960 776 960 775 960 779 961 780 961 778 961 779 962 778 962 777 962 781 963 782 963 780 963 781 964 780 964 779 964 783 965 782 965 781 965 783 966 784 966 782 966 785 967 784 967 783 967 785 968 786 968 787 968 785 969 787 969 784 969 788 970 485 970 756 970 788 971 756 971 789 971 788 972 789 972 790 972 788 973 790 973 791 973 788 974 791 974 792 974 788 975 792 975 793 975 788 976 793 976 794 976 788 977 794 977 795 977 788 978 795 978 796 978 788 979 796 979 797 979 788 980 797 980 798 980 788 981 798 981 799 981 788 982 799 982 800 982 788 983 800 983 801 983 788 984 801 984 802 984 803 985 786 985 785 985 803 986 804 986 786 986 805 987 788 987 802 987 805 988 802 988 806 988 807 989 804 989 803 989 807 990 808 990 804 990 809 991 805 991 806 991 809 992 806 992 810 992 811 993 808 993 807 993 812 994 809 994 810 994 812 995 810 995 813 995 814 996 808 996 811 996 814 997 815 997 808 997 816 998 812 998 813 998 816 999 813 999 817 999 818 1000 815 1000 814 1000 818 1001 819 1001 815 1001 820 1002 816 1002 817 1002 820 1003 817 1003 821 1003 822 1004 819 1004 818 1004 822 1005 823 1005 819 1005 824 1006 820 1006 821 1006 824 1007 821 1007 825 1007 824 1008 825 1008 826 1008 827 1009 823 1009 822 1009 827 1010 828 1010 823 1010 829 1011 824 1011 826 1011 830 1012 828 1012 827 1012 830 1013 831 1013 832 1013 830 1014 832 1014 828 1014 833 1015 829 1015 826 1015 833 1016 826 1016 834 1016 835 1017 831 1017 830 1017 836 1018 834 1018 837 1018 836 1019 833 1019 834 1019 836 1020 837 1020 838 1020 839 1021 831 1021 835 1021 839 1022 840 1022 841 1022 839 1023 841 1023 831 1023 842 1024 838 1024 843 1024 842 1025 836 1025 838 1025 844 1026 840 1026 839 1026 844 1027 845 1027 840 1027 846 1028 842 1028 843 1028 846 1029 843 1029 847 1029 848 1030 845 1030 844 1030 849 1031 846 1031 847 1031 850 1032 845 1032 848 1032 850 1033 851 1033 852 1033 850 1034 852 1034 845 1034 853 1035 849 1035 847 1035 853 1036 847 1036 854 1036 855 1037 851 1037 850 1037 856 1038 854 1038 857 1038 856 1039 857 1039 858 1039 856 1040 853 1040 854 1040 859 1041 851 1041 855 1041 859 1042 860 1042 851 1042 861 1043 856 1043 858 1043 862 1044 860 1044 859 1044 862 1045 861 1045 858 1045 862 1046 858 1046 863 1046 862 1047 863 1047 860 1047 602 1048 788 1048 615 1048 615 1049 805 1049 619 1049 788 1050 805 1050 615 1050 619 1051 809 1051 624 1051 805 1052 809 1052 619 1052 624 1053 812 1053 627 1053 809 1054 812 1054 624 1054 627 1055 816 1055 633 1055 812 1056 816 1056 627 1056 633 1057 820 1057 637 1057 816 1058 820 1058 633 1058 637 1059 824 1059 640 1059 820 1060 824 1060 637 1060 640 1061 829 1061 643 1061 824 1062 829 1062 640 1062 643 1063 833 1063 649 1063 829 1064 833 1064 643 1064 649 1065 836 1065 652 1065 833 1066 836 1066 649 1066 652 1067 842 1067 657 1067 836 1068 842 1068 652 1068 657 1069 846 1069 660 1069 842 1070 846 1070 657 1070 660 1071 849 1071 663 1071 846 1072 849 1072 660 1072 663 1073 853 1073 667 1073 849 1074 853 1074 663 1074 667 1075 856 1075 671 1075 853 1076 856 1076 667 1076 671 1077 861 1077 673 1077 856 1078 861 1078 671 1078 673 1079 862 1079 669 1079 861 1080 862 1080 673 1080 862 1081 859 1081 669 1081 669 1082 859 1082 665 1082 859 1083 855 1083 665 1083 665 1084 855 1084 662 1084 855 1085 850 1085 662 1085 662 1086 850 1086 658 1086 658 1087 848 1087 654 1087 850 1088 848 1088 658 1088 654 1089 844 1089 651 1089 848 1090 844 1090 654 1090 651 1091 839 1091 646 1091 844 1092 839 1092 651 1092 646 1093 835 1093 642 1093 839 1094 835 1094 646 1094 642 1095 830 1095 638 1095 835 1096 830 1096 642 1096 638 1097 827 1097 635 1097 830 1098 827 1098 638 1098 635 1099 822 1099 630 1099 827 1100 822 1100 635 1100 822 1101 818 1101 630 1101 630 1102 818 1102 626 1102 818 1103 814 1103 626 1103 626 1104 814 1104 622 1104 814 1105 811 1105 622 1105 622 1106 811 1106 617 1106 811 1107 807 1107 617 1107 617 1108 807 1108 613 1108 807 1109 803 1109 613 1109 613 1110 803 1110 601 1110 803 1111 785 1111 601 1111 601 1112 785 1112 599 1112 785 1113 783 1113 599 1113 783 1114 781 1114 599 1114 596 1115 781 1115 595 1115 599 1116 781 1116 596 1116 781 1117 779 1117 595 1117 595 1118 779 1118 593 1118 779 1119 777 1119 593 1119 777 1120 775 1120 593 1120 591 1121 775 1121 589 1121 593 1122 775 1122 591 1122 775 1123 774 1123 589 1123 589 1124 774 1124 587 1124 587 1125 771 1125 584 1125 774 1126 771 1126 587 1126 584 1127 770 1127 583 1127 771 1128 770 1128 584 1128 770 1129 767 1129 583 1129 767 1130 765 1130 583 1130 581 1131 765 1131 579 1131 583 1132 765 1132 581 1132 579 1133 764 1133 555 1133 765 1134 764 1134 579 1134 764 1135 761 1135 555 1135 761 1136 760 1136 555 1136 555 1137 760 1137 553 1137 760 1138 757 1138 553 1138 553 1139 757 1139 551 1139 757 1140 754 1140 551 1140 551 1141 754 1141 549 1141 754 1142 751 1142 549 1142 547 1143 751 1143 545 1143 549 1144 751 1144 547 1144 751 1145 748 1145 545 1145 545 1146 748 1146 542 1146 748 1147 745 1147 542 1147 745 1148 742 1148 542 1148 542 1149 742 1149 541 1149 742 1150 739 1150 541 1150 538 1151 739 1151 537 1151 541 1152 739 1152 538 1152 739 1153 736 1153 537 1153 537 1154 736 1154 535 1154 736 1155 733 1155 535 1155 733 1156 730 1156 535 1156 533 1157 730 1157 530 1157 535 1158 730 1158 533 1158 730 1159 727 1159 530 1159 530 1160 727 1160 529 1160 727 1161 724 1161 529 1161 529 1162 724 1162 526 1162 724 1163 721 1163 526 1163 526 1164 721 1164 525 1164 721 1165 718 1165 525 1165 525 1166 715 1166 522 1166 718 1167 715 1167 525 1167 520 1168 710 1168 518 1168 522 1169 710 1169 520 1169 715 1170 710 1170 522 1170 710 1171 707 1171 518 1171 518 1172 28 1172 30 1172 707 1173 28 1173 518 1173 257 1174 256 1174 366 1174 366 1175 258 1175 257 1175 366 1176 259 1176 258 1176 256 1177 255 1177 366 1177 255 1178 254 1178 366 1178 366 1179 260 1179 259 1179 254 1180 253 1180 366 1180 366 1181 261 1181 260 1181 366 1182 262 1182 261 1182 253 1183 252 1183 366 1183 252 1184 251 1184 366 1184 366 1185 263 1185 262 1185 366 1186 264 1186 263 1186 251 1187 250 1187 366 1187 366 1188 265 1188 264 1188 250 1189 249 1189 366 1189 249 1190 248 1190 366 1190 366 1191 266 1191 265 1191 248 1192 247 1192 366 1192 366 1193 267 1193 266 1193 247 1194 246 1194 366 1194 366 1195 268 1195 267 1195 246 1196 225 1196 366 1196 366 1197 269 1197 268 1197 485 1198 333 1198 366 1198 366 1199 333 1199 269 1199 225 1200 270 1200 366 1200 485 1201 461 1201 333 1201 485 1202 462 1202 461 1202 485 1203 463 1203 462 1203 485 1204 464 1204 463 1204 485 1205 465 1205 464 1205 485 1206 466 1206 465 1206 485 1207 467 1207 466 1207 485 1208 468 1208 467 1208 485 1209 469 1209 468 1209 485 1210 470 1210 469 1210 485 1211 471 1211 470 1211 485 1212 472 1212 471 1212 485 1213 473 1213 472 1213 485 1214 474 1214 473 1214 485 1215 475 1215 474 1215 485 1216 476 1216 475 1216 485 1217 477 1217 476 1217 485 1218 478 1218 477 1218 485 1219 479 1219 478 1219 485 1220 480 1220 479 1220 485 1221 481 1221 480 1221 485 1222 482 1222 481 1222 485 1223 483 1223 482 1223 485 1224 484 1224 483 1224 225 1225 214 1225 270 1225 484 1226 788 1226 602 1226 485 1227 788 1227 484 1227 212 1228 213 1228 416 1228 212 1229 416 1229 417 1229 210 1230 417 1230 432 1230 210 1231 212 1231 417 1231 208 1232 432 1232 435 1232 208 1233 210 1233 432 1233 205 1234 435 1234 437 1234 205 1235 208 1235 435 1235 204 1236 437 1236 439 1236 204 1237 205 1237 437 1237 202 1238 439 1238 441 1238 202 1239 204 1239 439 1239 200 1240 441 1240 442 1240 200 1241 202 1241 441 1241 198 1242 442 1242 446 1242 198 1243 200 1243 442 1243 196 1244 446 1244 447 1244 196 1245 198 1245 446 1245 194 1246 447 1246 450 1246 194 1247 196 1247 447 1247 191 1248 194 1248 450 1248 191 1249 450 1249 451 1249 181 1250 191 1250 451 1250 181 1251 451 1251 453 1251 180 1252 181 1252 453 1252 180 1253 453 1253 456 1253 175 1254 180 1254 456 1254 175 1255 456 1255 457 1255 170 1256 175 1256 457 1256 170 1257 457 1257 459 1257 165 1258 170 1258 459 1258 165 1259 459 1259 460 1259 161 1260 165 1260 460 1260 161 1261 460 1261 458 1261 159 1262 161 1262 458 1262 159 1263 458 1263 454 1263 157 1264 159 1264 454 1264 157 1265 454 1265 455 1265 153 1266 157 1266 455 1266 153 1267 455 1267 452 1267 150 1268 153 1268 452 1268 150 1269 452 1269 448 1269 146 1270 150 1270 448 1270 146 1271 448 1271 449 1271 144 1272 449 1272 444 1272 144 1273 146 1273 449 1273 140 1274 444 1274 445 1274 140 1275 144 1275 444 1275 138 1276 445 1276 443 1276 138 1277 140 1277 445 1277 135 1278 443 1278 440 1278 135 1279 138 1279 443 1279 132 1280 440 1280 438 1280 132 1281 135 1281 440 1281 129 1282 438 1282 436 1282 129 1283 132 1283 438 1283 126 1284 436 1284 434 1284 126 1285 129 1285 436 1285 123 1286 434 1286 433 1286 123 1287 126 1287 434 1287 120 1288 433 1288 431 1288 120 1289 123 1289 433 1289 116 1290 431 1290 415 1290 116 1291 120 1291 431 1291 113 1292 415 1292 414 1292 113 1293 116 1293 415 1293 108 1294 414 1294 412 1294 108 1295 113 1295 414 1295 105 1296 412 1296 413 1296 105 1297 108 1297 412 1297 101 1298 413 1298 411 1298 101 1299 105 1299 413 1299 96 1300 101 1300 411 1300 96 1301 411 1301 409 1301 93 1302 96 1302 409 1302 93 1303 409 1303 410 1303 89 1304 93 1304 410 1304 89 1305 410 1305 408 1305 85 1306 89 1306 408 1306 85 1307 408 1307 407 1307 82 1308 85 1308 407 1308 82 1309 407 1309 405 1309 77 1310 82 1310 405 1310 77 1311 405 1311 406 1311 73 1312 77 1312 406 1312 73 1313 406 1313 404 1313 69 1314 73 1314 404 1314 69 1315 404 1315 403 1315 65 1316 69 1316 403 1316 65 1317 403 1317 402 1317 61 1318 65 1318 402 1318 61 1319 402 1319 400 1319 59 1320 61 1320 400 1320 59 1321 400 1321 399 1321 57 1322 59 1322 399 1322 57 1323 399 1323 396 1323 63 1324 57 1324 396 1324 63 1325 396 1325 394 1325 66 1326 63 1326 394 1326 66 1327 394 1327 392 1327 71 1328 66 1328 392 1328 71 1329 392 1329 390 1329 75 1330 71 1330 390 1330 75 1331 390 1331 388 1331 75 1332 388 1332 386 1332 79 1333 75 1333 386 1333 84 1334 79 1334 386 1334 84 1335 386 1335 384 1335 86 1336 84 1336 384 1336 86 1337 384 1337 382 1337 91 1338 86 1338 382 1338 91 1339 382 1339 380 1339 94 1340 91 1340 380 1340 94 1341 380 1341 378 1341 99 1342 378 1342 376 1342 99 1343 94 1343 378 1343 103 1344 376 1344 374 1344 103 1345 99 1345 376 1345 106 1346 374 1346 372 1346 106 1347 372 1347 370 1347 106 1348 103 1348 374 1348 111 1349 106 1349 370 1349 115 1350 111 1350 370 1350 115 1351 370 1351 368 1351 119 1352 115 1352 368 1352 119 1353 368 1353 365 1353 122 1354 119 1354 365 1354 122 1355 365 1355 363 1355 124 1356 122 1356 363 1356 124 1357 363 1357 361 1357 128 1358 124 1358 361 1358 128 1359 361 1359 359 1359 130 1360 128 1360 359 1360 130 1361 359 1361 357 1361 133 1362 130 1362 357 1362 133 1363 357 1363 355 1363 136 1364 133 1364 355 1364 136 1365 355 1365 353 1365 139 1366 136 1366 353 1366 139 1367 353 1367 351 1367 142 1368 139 1368 351 1368 142 1369 351 1369 349 1369 142 1370 349 1370 347 1370 145 1371 142 1371 347 1371 145 1372 347 1372 345 1372 148 1373 145 1373 345 1373 151 1374 148 1374 345 1374 151 1375 345 1375 343 1375 155 1376 343 1376 341 1376 155 1377 341 1377 339 1377 155 1378 151 1378 343 1378 158 1379 155 1379 339 1379 160 1380 339 1380 337 1380 160 1381 158 1381 339 1381 164 1382 337 1382 335 1382 164 1383 335 1383 334 1383 164 1384 160 1384 337 1384 166 1385 164 1385 334 1385 167 1386 334 1386 336 1386 167 1387 166 1387 334 1387 168 1388 336 1388 338 1388 168 1389 167 1389 336 1389 171 1390 338 1390 340 1390 171 1391 168 1391 338 1391 172 1392 340 1392 342 1392 172 1393 342 1393 344 1393 172 1394 171 1394 340 1394 173 1395 344 1395 346 1395 173 1396 172 1396 344 1396 176 1397 173 1397 346 1397 177 1398 346 1398 348 1398 177 1399 176 1399 346 1399 178 1400 348 1400 350 1400 178 1401 177 1401 348 1401 182 1402 178 1402 350 1402 182 1403 350 1403 352 1403 183 1404 182 1404 352 1404 183 1405 352 1405 354 1405 184 1406 183 1406 354 1406 184 1407 354 1407 356 1407 186 1408 184 1408 356 1408 186 1409 356 1409 358 1409 187 1410 358 1410 360 1410 187 1411 186 1411 358 1411 188 1412 360 1412 362 1412 188 1413 187 1413 360 1413 189 1414 362 1414 364 1414 189 1415 188 1415 362 1415 192 1416 364 1416 367 1416 192 1417 367 1417 369 1417 192 1418 189 1418 364 1418 245 1419 192 1419 369 1419 244 1420 369 1420 371 1420 244 1421 245 1421 369 1421 243 1422 371 1422 373 1422 243 1423 244 1423 371 1423 242 1424 373 1424 375 1424 242 1425 243 1425 373 1425 241 1426 375 1426 377 1426 241 1427 242 1427 375 1427 240 1428 377 1428 379 1428 240 1429 241 1429 377 1429 239 1430 379 1430 381 1430 239 1431 240 1431 379 1431 238 1432 381 1432 383 1432 238 1433 239 1433 381 1433 237 1434 383 1434 385 1434 237 1435 238 1435 383 1435 236 1436 385 1436 387 1436 236 1437 237 1437 385 1437 235 1438 387 1438 389 1438 235 1439 236 1439 387 1439 234 1440 389 1440 391 1440 234 1441 235 1441 389 1441 233 1442 391 1442 393 1442 233 1443 393 1443 395 1443 233 1444 234 1444 391 1444 232 1445 233 1445 395 1445 231 1446 395 1446 397 1446 231 1447 232 1447 395 1447 230 1448 397 1448 398 1448 230 1449 231 1449 397 1449 229 1450 230 1450 398 1450 229 1451 398 1451 401 1451 229 1452 401 1452 418 1452 228 1453 229 1453 418 1453 227 1454 228 1454 418 1454 227 1455 418 1455 419 1455 226 1456 227 1456 419 1456 226 1457 419 1457 420 1457 224 1458 226 1458 420 1458 224 1459 420 1459 421 1459 223 1460 224 1460 421 1460 223 1461 421 1461 422 1461 222 1462 223 1462 422 1462 222 1463 422 1463 423 1463 221 1464 222 1464 423 1464 221 1465 423 1465 424 1465 220 1466 221 1466 424 1466 220 1467 424 1467 425 1467 219 1468 220 1468 425 1468 219 1469 425 1469 426 1469 218 1470 219 1470 426 1470 218 1471 426 1471 427 1471 217 1472 218 1472 427 1472 217 1473 427 1473 428 1473 216 1474 217 1474 428 1474 216 1475 428 1475 429 1475 215 1476 429 1476 430 1476 215 1477 216 1477 429 1477 213 1478 430 1478 416 1478 213 1479 215 1479 430 1479 802 1480 604 1480 616 1480 806 1481 616 1481 620 1481 806 1482 802 1482 616 1482 810 1483 620 1483 625 1483 810 1484 806 1484 620 1484 813 1485 625 1485 628 1485 813 1486 810 1486 625 1486 817 1487 628 1487 629 1487 817 1488 813 1488 628 1488 821 1489 629 1489 634 1489 821 1490 817 1490 629 1490 825 1491 634 1491 641 1491 825 1492 821 1492 634 1492 826 1493 641 1493 644 1493 826 1494 825 1494 641 1494 834 1495 644 1495 645 1495 834 1496 826 1496 644 1496 837 1497 645 1497 650 1497 837 1498 834 1498 645 1498 838 1499 650 1499 653 1499 838 1500 837 1500 650 1500 843 1501 838 1501 653 1501 843 1502 653 1502 661 1502 847 1503 843 1503 661 1503 847 1504 661 1504 664 1504 854 1505 847 1505 664 1505 854 1506 664 1506 668 1506 857 1507 854 1507 668 1507 857 1508 668 1508 672 1508 858 1509 857 1509 672 1509 858 1510 672 1510 674 1510 863 1511 858 1511 674 1511 863 1512 674 1512 670 1512 860 1513 863 1513 670 1513 860 1514 670 1514 666 1514 851 1515 860 1515 666 1515 851 1516 666 1516 659 1516 852 1517 659 1517 656 1517 852 1518 851 1518 659 1518 845 1519 852 1519 656 1519 845 1520 656 1520 655 1520 840 1521 655 1521 648 1521 840 1522 845 1522 655 1522 841 1523 648 1523 647 1523 841 1524 840 1524 648 1524 831 1525 647 1525 639 1525 831 1526 841 1526 647 1526 832 1527 639 1527 636 1527 832 1528 831 1528 639 1528 828 1529 636 1529 632 1529 828 1530 832 1530 636 1530 823 1531 632 1531 631 1531 823 1532 828 1532 632 1532 819 1533 631 1533 623 1533 819 1534 823 1534 631 1534 815 1535 623 1535 621 1535 815 1536 819 1536 623 1536 808 1537 621 1537 618 1537 808 1538 815 1538 621 1538 804 1539 618 1539 614 1539 804 1540 808 1540 618 1540 786 1541 614 1541 600 1541 786 1542 804 1542 614 1542 787 1543 600 1543 598 1543 787 1544 786 1544 600 1544 784 1545 598 1545 597 1545 784 1546 787 1546 598 1546 782 1547 597 1547 594 1547 782 1548 784 1548 597 1548 780 1549 594 1549 592 1549 780 1550 782 1550 594 1550 778 1551 780 1551 592 1551 778 1552 592 1552 590 1552 776 1553 778 1553 590 1553 776 1554 590 1554 588 1554 772 1555 776 1555 588 1555 772 1556 588 1556 586 1556 773 1557 586 1557 585 1557 773 1558 772 1558 586 1558 768 1559 585 1559 582 1559 768 1560 773 1560 585 1560 769 1561 582 1561 580 1561 769 1562 768 1562 582 1562 766 1563 580 1563 578 1563 766 1564 769 1564 580 1564 762 1565 766 1565 578 1565 763 1566 554 1566 552 1566 763 1567 578 1567 554 1567 763 1568 762 1568 578 1568 758 1569 763 1569 552 1569 759 1570 550 1570 548 1570 759 1571 552 1571 550 1571 759 1572 758 1572 552 1572 755 1573 759 1573 548 1573 750 1574 546 1574 544 1574 750 1575 548 1575 546 1575 750 1576 755 1576 548 1576 747 1577 750 1577 544 1577 744 1578 543 1578 540 1578 744 1579 544 1579 543 1579 744 1580 747 1580 544 1580 741 1581 540 1581 539 1581 741 1582 744 1582 540 1582 738 1583 741 1583 539 1583 735 1584 738 1584 539 1584 735 1585 539 1585 536 1585 732 1586 735 1586 536 1586 732 1587 534 1587 532 1587 732 1588 536 1588 534 1588 729 1589 732 1589 532 1589 726 1590 729 1590 532 1590 726 1591 531 1591 528 1591 726 1592 532 1592 531 1592 723 1593 726 1593 528 1593 723 1594 528 1594 527 1594 720 1595 723 1595 527 1595 717 1596 720 1596 527 1596 717 1597 524 1597 523 1597 717 1598 527 1598 524 1598 714 1599 523 1599 521 1599 714 1600 717 1600 523 1600 712 1601 714 1601 521 1601 709 1602 712 1602 521 1602 709 1603 519 1603 517 1603 709 1604 521 1604 519 1604 706 1605 709 1605 517 1605 706 1606 517 1606 515 1606 704 1607 706 1607 515 1607 702 1608 704 1608 515 1608 702 1609 515 1609 513 1609 700 1610 702 1610 513 1610 700 1611 513 1611 511 1611 698 1612 700 1612 511 1612 698 1613 509 1613 507 1613 698 1614 511 1614 509 1614 696 1615 698 1615 507 1615 696 1616 507 1616 505 1616 694 1617 696 1617 505 1617 692 1618 694 1618 505 1618 692 1619 503 1619 501 1619 692 1620 505 1620 503 1620 690 1621 692 1621 501 1621 688 1622 690 1622 501 1622 688 1623 501 1623 499 1623 686 1624 688 1624 499 1624 686 1625 497 1625 495 1625 686 1626 499 1626 497 1626 684 1627 686 1627 495 1627 682 1628 684 1628 495 1628 682 1629 495 1629 493 1629 680 1630 682 1630 493 1630 680 1631 491 1631 489 1631 680 1632 493 1632 491 1632 678 1633 680 1633 489 1633 675 1634 678 1634 489 1634 675 1635 489 1635 487 1635 676 1636 675 1636 487 1636 676 1637 486 1637 488 1637 676 1638 487 1638 486 1638 677 1639 676 1639 488 1639 679 1640 490 1640 492 1640 679 1641 488 1641 490 1641 679 1642 677 1642 488 1642 681 1643 679 1643 492 1643 683 1644 492 1644 494 1644 683 1645 681 1645 492 1645 685 1646 494 1646 496 1646 685 1647 683 1647 494 1647 687 1648 496 1648 498 1648 687 1649 685 1649 496 1649 689 1650 498 1650 500 1650 689 1651 687 1651 498 1651 691 1652 689 1652 500 1652 691 1653 502 1653 504 1653 691 1654 500 1654 502 1654 693 1655 691 1655 504 1655 695 1656 693 1656 504 1656 695 1657 506 1657 508 1657 695 1658 504 1658 506 1658 697 1659 695 1659 508 1659 697 1660 508 1660 510 1660 699 1661 697 1661 510 1661 699 1662 510 1662 512 1662 701 1663 699 1663 512 1663 703 1664 701 1664 512 1664 703 1665 514 1665 516 1665 703 1666 512 1666 514 1666 705 1667 703 1667 516 1667 705 1668 516 1668 577 1668 708 1669 705 1669 577 1669 711 1670 708 1670 577 1670 711 1671 576 1671 575 1671 711 1672 577 1672 576 1672 713 1673 711 1673 575 1673 716 1674 713 1674 575 1674 716 1675 574 1675 573 1675 716 1676 575 1676 574 1676 719 1677 716 1677 573 1677 722 1678 719 1678 573 1678 722 1679 573 1679 572 1679 725 1680 722 1680 572 1680 725 1681 572 1681 571 1681 728 1682 570 1682 569 1682 728 1683 571 1683 570 1683 728 1684 725 1684 571 1684 731 1685 728 1685 569 1685 734 1686 568 1686 567 1686 734 1687 569 1687 568 1687 734 1688 731 1688 569 1688 737 1689 734 1689 567 1689 740 1690 566 1690 565 1690 740 1691 567 1691 566 1691 740 1692 737 1692 567 1692 743 1693 740 1693 565 1693 746 1694 564 1694 563 1694 746 1695 565 1695 564 1695 746 1696 743 1696 565 1696 749 1697 563 1697 562 1697 749 1698 746 1698 563 1698 752 1699 749 1699 562 1699 753 1700 562 1700 561 1700 753 1701 752 1701 562 1701 756 1702 561 1702 560 1702 756 1703 753 1703 561 1703 789 1704 756 1704 560 1704 789 1705 559 1705 558 1705 789 1706 560 1706 559 1706 790 1707 789 1707 558 1707 790 1708 558 1708 556 1708 791 1709 790 1709 556 1709 792 1710 791 1710 556 1710 792 1711 557 1711 612 1711 792 1712 556 1712 557 1712 793 1713 792 1713 612 1713 793 1714 612 1714 611 1714 794 1715 793 1715 611 1715 795 1716 794 1716 611 1716 795 1717 611 1717 610 1717 796 1718 609 1718 608 1718 796 1719 610 1719 609 1719 796 1720 795 1720 610 1720 797 1721 608 1721 607 1721 797 1722 796 1722 608 1722 798 1723 607 1723 606 1723 798 1724 797 1724 607 1724 799 1725 798 1725 606 1725 800 1726 605 1726 603 1726 800 1727 606 1727 605 1727 800 1728 799 1728 606 1728 801 1729 800 1729 603 1729 802 1730 603 1730 604 1730 802 1731 801 1731 603 1731</p>
        </triangles>
      </mesh>
    </geometry>
  </library_geometries>
  <library_materials>
    <material id="mat_Body" name="Body">
      <instance_effect url="#effect_Body"/>
    </material>
  </library_materials>
  <library_visual_scenes>
    <visual_scene id="myscene">
      <node id="node0" name="node0">
        <instance_geometry url="#geometry0">
          <bind_material>
            <technique_common>
              <instance_material symbol="ref_Body" target="#mat_Body"/>
            </technique_common>
          </bind_material>
        </instance_geometry>
      </node>
    </visual_scene>
  </library_visual_scenes>
  <scene>
    <instance_visual_scene url="#myscene"/>
  </scene>
</COLLADA>
